<?xml version="1.0" encoding="UTF-8" standalone="no"?>
<svg
   xmlns:dc="http://purl.org/dc/elements/1.1/"
   xmlns:cc="http://creativecommons.org/ns#"
   xmlns:rdf="http://www.w3.org/1999/02/22-rdf-syntax-ns#"
   xmlns:svg="http://www.w3.org/2000/svg"
   xmlns="http://www.w3.org/2000/svg"
   viewBox="0 0 816 1071"
   height="1071"
   width="816"
   xml:space="preserve"
   id="svg2"
   version="1.1"><metadata
     id="metadata8"><rdf:RDF><cc:Work
         rdf:about=""><dc:format>image/svg+xml</dc:format><dc:type
           rdf:resource="http://purl.org/dc/dcmitype/StillImage" /></cc:Work></rdf:RDF></metadata><defs
     id="defs6"><clipPath
       id="clipPath36"
       clipPathUnits="userSpaceOnUse"><path
         id="path34"
         d="M 0,0 H 612 V 803.25 H 0 Z" /></clipPath></defs><g
     transform="matrix(1.3333333,0,0,-1.3333333,0,1071)"
     id="g10"><g
       id="g12" /><g
       id="g14"><g
         transform="matrix(1.079365,0,0,1.079365,15.9375,803.25)"
         id="g16" /><g
         transform="matrix(1.079365,0,0,1.079365,15.9375,803.25)"
         id="g18"><text
           id="text22"
           style="font-variant:normal;font-weight:normal;font-size:8px;writing-mode:lr-tb;fill:#000000;fill-opacity:0;fill-rule:nonzero;stroke:none"
           transform="matrix(1,0,0,-1,36.04574,-119.7352)"><tspan
             id="tspan20"
             y="0"
             x="0">i</tspan></text>
</g><g
         transform="matrix(1.079365,0,0,1.079365,15.9375,803.25)"
         id="g24"><text
           id="text28"
           style="font-variant:normal;font-weight:normal;font-size:8px;writing-mode:lr-tb;fill:#000000;fill-opacity:0;fill-rule:nonzero;stroke:none"
           transform="matrix(1,0,0,-1,27.08089,-122.6844)"><tspan
             id="tspan26"
             y="0"
             x="0">i</tspan></text>
</g></g><g
       id="g30"><g
         clip-path="url(#clipPath36)"
         id="g32"><path
           id="path38"
           style="fill:#000000;fill-opacity:1;fill-rule:nonzero;stroke:none"
           d="m 59.56237,767.8169 c 0,-8.4234 -4.55705,-15.7828 -11.34093,-19.7461 -3.38094,-1.9752 -7.31463,-3.1077 -11.51292,-3.1077 -8.42345,0 -15.78285,4.557 -19.74613,11.3409 -1.97521,3.3809 -3.10773,7.3146 -3.10773,11.5129 0,8.4235 4.55705,15.7829 11.34094,19.7461 3.38094,1.9752 7.31462,3.1078 11.51292,3.1078 8.42345,0 15.78284,-4.5571 19.74612,-11.341 1.97521,-3.3809 3.10773,-7.3146 3.10773,-11.5129 m -3.1875,0 c 0,3.6117 -0.97312,6.9963 -2.67246,9.905 -3.41087,5.8384 -9.7441,9.7614 -16.99389,9.7614 -3.61173,0 -6.99626,-0.9732 -9.90502,-2.6725 -5.83834,-3.4109 -9.76134,-9.7441 -9.76134,-16.9939 0,-3.6117 0.97312,-6.9962 2.67247,-9.905 3.41087,-5.8383 9.74409,-9.7613 16.99389,-9.7613 3.61172,0 6.99626,0.9731 9.90501,2.6724 5.83834,3.4109 9.76134,9.7441 9.76134,16.9939 m -6.64453,4.9254 c -0.6224,0.6224 -0.6224,1.6315 0,2.2539 0.62239,0.6224 1.6315,0.6224 2.2539,0 l 7.08662,-7.0866 c 0.6224,-0.6224 0.6224,-1.6315 0,-2.2539 -0.6224,-0.6224 -1.63151,-0.6224 -2.25391,0 z m 9.34052,-7.0866 c -0.6224,-0.6224 -1.63151,-0.6224 -2.25391,0 -0.62239,0.6224 -0.62239,1.6315 0,2.2539 l 7.08662,7.0866 c 0.6224,0.6224 1.63151,0.6224 2.25391,0 0.62239,-0.6224 0.62239,-1.6315 0,-2.2539 z m -35.40863,-3.7985 c 0.6224,-0.6224 0.6224,-1.6315 0,-2.2539 -0.6224,-0.6224 -1.6315,-0.6224 -2.2539,0 l -7.08662,7.0867 c -0.6224,0.6224 -0.6224,1.6315 0,2.2539 0.6224,0.6224 1.63151,0.6224 2.2539,0 z m -9.34052,7.0867 c 0.6224,0.6224 1.63151,0.6224 2.2539,0 0.6224,-0.6224 0.6224,-1.6315 0,-2.2539 l -7.086615,-7.0867 c -0.622398,-0.6224 -1.631504,-0.6224 -2.253902,0 -0.622399,0.6224 -0.622399,1.6315 0,2.2539 z m 73.58688,4.4244 v -10.9858 h 21.41451 l -0.0217,-1.8524 -0.0108,-0.6561 -0.0284,-0.4354 -0.014,-0.2436 H 86.31484 c -0.8802,0 -1.59375,0.7136 -1.59375,1.5938 v 14.1732 c 0,0.8802 0.71355,1.5938 1.59375,1.5938 h 42.51966 c 0.8803,0 1.5938,-0.7136 1.5938,-1.5938 v -9.5992 l -0.3484,0.3109 -0.2662,0.2662 -0.3339,0.3125 -0.8801,0.8305 -0.3475,0.3247 -0.2086,0.1877 -0.8028,0.7228 v 5.0502 z m -1.59375,-15.366 h 22.85236 l -0.0417,-0.6194 -0.0528,-0.5843 -0.0555,-0.7893 -0.0404,-0.464 -0.0527,-0.7305 H 87.90859 V 743.829 h 39.33221 v 5.7873 l 0.3486,0.3342 0.2369,0.2108 0.4058,0.3716 0.3433,0.3117 0.4776,0.4283 0.4112,0.3693 0.4819,0.4137 0.3226,0.2566 0.1596,0.1265 v -10.2037 c 0,-0.8802 -0.7135,-1.5938 -1.5938,-1.5938 H 86.31484 c -0.8802,0 -1.59375,0.7136 -1.59375,1.5938 v 14.1732 c 0,0.8802 0.71355,1.5938 1.59375,1.5938 m 47.80326,1.1927 c 0,-5.1851 -2.8049,-9.7154 -6.9809,-12.1551 -2.0814,-1.216 -4.503,-1.9135 -7.0877,-1.9135 -5.1851,0 -9.7154,2.805 -12.1551,6.981 -1.216,2.0814 -1.9135,4.503 -1.9135,7.0876 0,5.1852 2.805,9.7155 6.981,12.1552 2.0814,1.2159 4.503,1.9134 7.0876,1.9134 5.1852,0 9.7155,-2.8049 12.1551,-6.9809 1.216,-2.0814 1.9135,-4.503 1.9135,-7.0877 m -3.1875,0 c 0,1.9981 -0.5381,3.8706 -1.4782,5.4798 -1.8873,3.2304 -5.3914,5.4013 -9.4029,5.4013 -1.998,0 -3.8705,-0.538 -5.4797,-1.4782 -3.2305,-1.8872 -5.4014,-5.3914 -5.4014,-9.4029 0,-1.998 0.5381,-3.8705 1.4782,-5.4797 1.8873,-3.2304 5.3914,-5.4014 9.4029,-5.4014 1.9981,0 3.8706,0.5381 5.4798,1.4782 3.2304,1.8873 5.4013,5.3915 5.4013,9.4029 m -12.2083,3.7572 v -7.4955 l 4.6342,3.6131 z m -0.5703,4.636 8.7629,-7.3413 c 0.7778,-0.6517 0.7567,-1.8547 -0.0436,-2.4786 l -8.7629,-6.8319 c -1.0466,-0.816 -2.5736,-0.0702 -2.5736,1.2569 v 14.1732 c 0,1.3532 1.5799,2.0907 2.6172,1.2217 M 87.90859,791.9218 V 780.936 h 39.33221 v 10.9858 z m -1.59375,3.1875 h 42.51966 c 0.8803,0 1.5938,-0.7136 1.5938,-1.5938 v -14.1732 c 0,-0.8802 -0.7135,-1.5938 -1.5938,-1.5938 H 86.31484 c -0.8802,0 -1.59375,0.7136 -1.59375,1.5938 v 14.1732 c 0,0.8802 0.71355,1.5938 1.59375,1.5938 m 74.11356,-3.7969 c -0.8802,0 -1.5938,0.7136 -1.5938,1.5938 0,0.8802 0.7136,1.5937 1.5938,1.5937 h 28.3465 c 0.8802,0 1.5937,-0.7135 1.5937,-1.5937 0,-0.8802 -0.7135,-1.5938 -1.5937,-1.5938 z m 26.7527,1.5938 c 0,0.8802 0.7136,1.5937 1.5938,1.5937 0.8802,0 1.5937,-0.7135 1.5937,-1.5937 v -42.5197 c 0,-0.8802 -0.7135,-1.5938 -1.5937,-1.5938 -0.8802,0 -1.5938,0.7136 -1.5938,1.5938 z m -21.0086,-6.892 c 0,0.8802 0.7136,1.5937 1.5938,1.5937 0.8802,0 1.5937,-0.7135 1.5937,-1.5937 v -43.7625 c 0,-0.8802 -0.7135,-1.5938 -1.5937,-1.5938 -0.8802,0 -1.5938,0.7136 -1.5938,1.5938 z m 1.5938,-45.3563 c -0.8802,0 -1.5938,0.7136 -1.5938,1.5938 0,0.8802 0.7136,1.5937 1.5938,1.5937 h 28.3464 c 0.8802,0 1.5938,-0.7135 1.5938,-1.5937 0,-0.8802 -0.7136,-1.5938 -1.5938,-1.5938 z m 26.7527,45.3563 c 0,0.8802 0.7135,1.5937 1.5937,1.5937 0.8802,0 1.5938,-0.7135 1.5938,-1.5937 v -43.7625 c 0,-0.8802 -0.7136,-1.5938 -1.5938,-1.5938 -0.8802,0 -1.5937,0.7136 -1.5937,1.5938 z m -35.6844,6.892 c 0,0.8802 0.7136,1.5937 1.5938,1.5937 0.8802,0 1.5937,-0.7135 1.5937,-1.5937 v -42.5197 c 0,-0.8802 -0.7135,-1.5938 -1.5937,-1.5938 -0.8802,0 -1.5938,0.7136 -1.5938,1.5938 z m 8.9317,-8.4858 c -0.8802,0 -1.5938,0.7136 -1.5938,1.5938 0,0.8802 0.7136,1.5937 1.5938,1.5937 h 14.1732 c 0.8802,0 1.5937,-0.7135 1.5937,-1.5937 0,-0.8802 -0.7135,-1.5938 -1.5937,-1.5938 z m 6.8353,-35.6277 c -0.8802,0 -1.5937,0.7136 -1.5937,1.5938 0,0.8802 0.7135,1.5937 1.5937,1.5937 h 14.1733 c 0.8802,0 1.5937,-0.7135 1.5937,-1.5937 0,-0.8802 -0.7135,-1.5938 -1.5937,-1.5938 z m 48.213,19.052 c -0.6224,-0.6224 -1.6315,-0.6224 -2.2539,0 -0.6224,0.6224 -0.6224,1.6315 0,2.2539 l 14.1732,14.1732 c 0.6224,0.6224 1.6315,0.6224 2.2539,0 0.6224,-0.6224 0.6224,-1.6315 0,-2.2539 z m 39.9672,30.1861 c 0.3937,0.7873 1.351,1.1064 2.1383,0.7128 0.7873,-0.3937 1.1064,-1.351 0.7127,-2.1383 l -28.3464,-56.6929 c -0.3937,-0.7873 -1.351,-1.1064 -2.1383,-0.7128 -0.7873,0.3937 -1.1064,1.351 -0.7127,2.1383 z m 16.7257,-27.9322 c 0.6224,-0.6224 0.6224,-1.6315 0,-2.2539 -0.6224,-0.6224 -1.6315,-0.6224 -2.2539,0 l -14.1732,14.1732 c -0.6224,0.6224 -0.6224,1.6315 0,2.2539 0.6224,0.6224 1.6315,0.6224 2.2539,0 z m -14.1732,-16.4272 c -0.6224,-0.6224 -1.6315,-0.6224 -2.2539,0 -0.6224,0.6224 -0.6224,1.6315 0,2.2539 l 14.1732,14.1733 c 0.6224,0.6224 1.6315,0.6224 2.2539,0 0.6224,-0.6224 0.6224,-1.6315 0,-2.2539 z m -28.3465,2.2539 c 0.6224,-0.6224 0.6224,-1.6315 0,-2.2539 -0.6224,-0.6224 -1.6315,-0.6224 -2.2539,0 l -14.1732,14.1733 c -0.6224,0.6224 -0.6224,1.6315 0,2.2539 0.6224,0.6224 1.6315,0.6224 2.2539,0 z m 79.3347,42.9352 c 0.879,-0.0462 1.5541,-0.7963 1.5078,-1.6753 -0.0462,-0.8789 -0.7962,-1.554 -1.6752,-1.5078 -8.1434,0.4282 -12.1465,-3.575 -12.497,-12.6432 -0.034,-0.8796 -0.7746,-1.5651 -1.6541,-1.5311 -0.8795,0.034 -1.565,0.7746 -1.531,1.6541 0.4167,10.7828 5.8624,16.2285 15.8495,15.7033 m -28.5139,-31.5296 c -0.879,0.0462 -1.5541,0.7963 -1.5078,1.6753 0.0462,0.8789 0.7962,1.554 1.6752,1.5078 8.1434,-0.4282 12.1465,3.575 12.497,12.6432 0.034,0.8796 0.7745,1.5651 1.6541,1.5311 0.8795,-0.034 1.565,-0.7746 1.531,-1.6541 -0.4167,-10.7828 -5.8624,-16.2285 -15.8495,-15.7033 m 15.8485,-12.6654 c -0.0462,-0.879 -0.7963,-1.554 -1.6752,-1.5078 -0.879,0.0462 -1.5541,0.7962 -1.5079,1.6752 0.4282,8.1434 -3.5749,12.1465 -12.6432,12.497 -0.8796,0.034 -1.565,0.7746 -1.5311,1.6541 0.034,0.8796 0.7746,1.565 1.6542,1.531 10.7827,-0.4167 16.2284,-5.8624 15.7032,-15.8495 m -3.1831,0.1674 c 0.0462,0.879 0.7962,1.5541 1.6752,1.5079 0.879,-0.0462 1.5541,-0.7963 1.5079,-1.6753 -0.4282,-8.1433 3.5749,-12.1465 12.6432,-12.4969 0.8796,-0.034 1.565,-0.7746 1.531,-1.6542 -0.0339,-0.8795 -0.7745,-1.565 -1.6541,-1.531 -10.7827,0.4167 -16.2284,5.8624 -15.7032,15.8495 m 23.7393,-15.8157 c -0.879,0.0462 -1.5541,0.7963 -1.5079,1.6753 0.0462,0.8789 0.7963,1.554 1.6753,1.5078 8.1433,-0.4282 12.1465,3.5749 12.4969,12.6432 0.034,0.8796 0.7746,1.565 1.6542,1.5311 0.8795,-0.034 1.565,-0.7746 1.531,-1.6542 -0.4167,-10.7827 -5.8624,-16.2284 -15.8495,-15.7032 m 28.5138,31.5296 c 0.879,-0.0462 1.5541,-0.7963 1.5079,-1.6753 -0.0462,-0.879 -0.7963,-1.554 -1.6752,-1.5078 -8.1434,0.4282 -12.1466,-3.575 -12.497,-12.6433 -0.034,-0.8795 -0.7746,-1.565 -1.6541,-1.531 -0.8796,0.034 -1.565,0.7746 -1.5311,1.6541 0.4168,10.7828 5.8624,16.2285 15.8495,15.7033 m -15.8484,12.6654 c 0.0462,0.8789 0.7962,1.554 1.6752,1.5078 0.879,-0.0462 1.5541,-0.7962 1.5079,-1.6752 -0.4283,-8.1434 3.5749,-12.1466 12.6432,-12.497 0.8795,-0.034 1.565,-0.7746 1.531,-1.6541 -0.034,-0.8796 -0.7746,-1.565 -1.6541,-1.531 -10.7828,0.4167 -16.2284,5.8623 -15.7032,15.8495 m 3.1831,-0.1674 c -0.0463,-0.879 -0.7963,-1.5541 -1.6753,-1.5079 -0.879,0.0462 -1.5541,0.7963 -1.5078,1.6753 0.4282,8.1433 -3.575,12.1465 -12.6433,12.4969 -0.8795,0.034 -1.565,0.7746 -1.531,1.6541 0.034,0.8796 0.7746,1.5651 1.6541,1.5311 10.7828,-0.4167 16.2284,-5.8624 15.7033,-15.8495 m 24.1037,-39.9285 c -0.3937,-0.7873 -1.351,-1.1064 -2.1383,-0.7128 -0.7872,0.3937 -1.1063,1.351 -0.7127,2.1383 19.485,38.9699 40.0589,38.9699 59.5439,0 0.3937,-0.7873 0.0746,-1.7446 -0.7127,-2.1383 -0.7873,-0.3936 -1.7446,-0.0745 -2.1383,0.7128 -18.3103,36.6206 -35.5316,36.6206 -53.8419,0 m 12.7477,27.4654 c -0.8802,0 -1.5937,0.7136 -1.5937,1.5938 0,0.8802 0.7135,1.5937 1.5937,1.5937 h 28.3465 c 0.8802,0 1.5937,-0.7135 1.5937,-1.5937 0,-0.8802 -0.7135,-1.5938 -1.5937,-1.5938 z m 29.9402,7.2234 v -10.9858 h 10.9858 v 10.9858 z m -1.5937,3.1875 h 14.1732 c 0.8802,0 1.5938,-0.7136 1.5938,-1.5938 v -14.1732 c 0,-0.8802 -0.7136,-1.5938 -1.5938,-1.5938 h -14.1732 c -0.8802,0 -1.5938,0.7136 -1.5938,1.5938 v 14.1732 c 0,0.8802 0.7136,1.5938 1.5938,1.5938 m -40.926,-3.1875 v -10.9858 h 10.9858 v 10.9858 z m -1.5937,3.1875 h 14.1732 c 0.8802,0 1.5938,-0.7136 1.5938,-1.5938 v -14.1732 c 0,-0.8802 -0.7136,-1.5938 -1.5938,-1.5938 H 362.74 c -0.8802,0 -1.5938,0.7136 -1.5938,1.5938 v 14.1732 c 0,0.8802 0.7136,1.5938 1.5938,1.5938 m 22.8065,3.7624 v -10.9858 h 10.9858 v 10.9858 z m -1.5937,3.1875 h 14.1732 c 0.8802,0 1.5938,-0.7136 1.5938,-1.5938 v -14.1732 c 0,-0.8802 -0.7136,-1.5938 -1.5938,-1.5938 h -14.1732 c -0.8802,0 -1.5938,0.7136 -1.5938,1.5938 v 14.1732 c 0,0.8802 0.7136,1.5938 1.5938,1.5938 M 137.3951,696.3678 c 0,-10.801 -5.8434,-20.2375 -14.5421,-25.3194 -4.335,-2.5326 -9.3788,-3.9845 -14.7619,-3.9845 -10.80098,0 -20.23748,5.8434 -25.31937,14.542 -2.53262,4.3351 -3.98456,9.3789 -3.98456,14.7619 0,10.801 5.84342,20.2375 14.54204,25.3194 4.33506,2.5326 9.37889,3.9846 14.76189,3.9846 10.801,0 20.2375,-5.8434 25.3194,-14.5421 2.5326,-4.335 3.9846,-9.3788 3.9846,-14.7619 m -3.1875,0 c 0,4.7965 -1.2926,9.2912 -3.5493,13.154 -4.5295,7.7531 -12.9398,12.9625 -22.5672,12.9625 -4.7964,0 -9.29111,-1.2925 -13.15398,-3.5493 -7.75307,-4.5295 -12.96245,-12.9398 -12.96245,-22.5672 0,-4.7964 1.29253,-9.2911 3.54929,-13.154 4.52949,-7.7531 12.93982,-12.9624 22.56714,-12.9624 4.7965,0 9.2912,1.2925 13.154,3.5493 7.7531,4.5295 12.9625,12.9398 12.9625,22.5671 m -46.7092,-4.9056 c -0.76948,-0.4274 -1.73973,-0.1501 -2.16713,0.6194 -0.4274,0.7695 -0.15009,1.7397 0.61939,2.1671 l 34.05214,18.914 c 0.7695,0.4274 1.7398,0.1501 2.1672,-0.6194 0.4273,-0.7695 0.15,-1.7397 -0.6194,-2.1671 z m 31.7112,20.5974 c 0.1603,0.8655 0.9918,1.4372 1.8573,1.2769 0.8655,-0.1603 1.4372,-0.9918 1.2769,-1.8573 l -6.3086,-34.0664 c -0.1603,-0.8655 -0.9918,-1.4372 -1.8573,-1.2769 -0.8655,0.1603 -1.4372,0.9918 -1.2769,1.8573 z m -17.4839,-28.0225 c -0.5546,-0.6835 -1.5582,-0.788 -2.24177,-0.2334 -0.68352,0.5545 -0.78806,1.5582 -0.23348,2.2417 l 9.43655,11.6308 c 0.5546,0.6835 1.5582,0.7881 2.2418,0.2335 0.6835,-0.5546 0.788,-1.5583 0.2335,-2.2418 z m -1.99365,-0.3988 c -0.77486,0.4175 -1.06453,1.3842 -0.64699,2.159 0.41754,0.7749 1.38414,1.0646 2.15904,0.647 l 4.7183,-2.5425 c 0.7748,-0.4175 1.0645,-1.3841 0.647,-2.159 -0.4176,-0.7749 -1.3842,-1.0645 -2.1591,-0.647 z m 51.92045,32.9785 v -39.3322 h 53.5055 v 39.3322 z m -1.5937,3.1875 h 56.6929 c 0.8802,0 1.5938,-0.7135 1.5938,-1.5937 v -42.5197 c 0,-0.8802 -0.7136,-1.5938 -1.5938,-1.5938 h -56.6929 c -0.8802,0 -1.5938,0.7136 -1.5938,1.5938 v 42.5197 c 0,0.8802 0.7136,1.5937 1.5938,1.5937 m 15.767,-11.2591 v -23.189 l 23.189,11.5945 z m -0.881,4.0042 28.3464,-14.1732 c 1.1747,-0.5873 1.1747,-2.2636 0,-2.851 L 164.9448,681.352 c -1.0597,-0.5299 -2.3065,0.2407 -2.3065,1.4255 v 28.3464 c 0,1.1848 1.2468,1.9554 2.3065,1.4255 m 301.7063,43.8587 c -0.6224,-0.6224 -1.6315,-0.6224 -2.2539,0 -0.6224,0.6224 -0.6224,1.6315 0,2.2539 l 7.0866,7.0866 c 0.6224,0.6224 1.6315,0.6224 2.2539,0 0.6224,-0.6224 0.6224,-1.6315 0,-2.2539 z m 4.8384,7.0809 c -0.6255,0.6193 -0.6306,1.6284 -0.0113,2.2539 0.6192,0.6256 1.6283,0.6307 2.2538,0.0114 l 7.1194,-7.0478 c 0.6256,-0.6192 0.6307,-1.6283 0.0114,-2.2538 -0.6192,-0.6256 -1.6283,-0.6307 -2.2539,-0.0114 z m -26.0982,-14.1675 c -0.6224,-0.6224 -1.6315,-0.6224 -2.2539,0 -0.6224,0.6224 -0.6224,1.6315 0,2.2539 l 14.1732,14.1732 c 0.6224,0.6224 1.6315,0.6224 2.2539,0 0.6224,-0.6224 0.6224,-1.6315 0,-2.2539 z m 11.9193,14.1732 c -0.6224,0.6224 -0.6224,1.6315 0,2.2539 0.6224,0.6224 1.6315,0.6224 2.2539,0 l 14.1732,-14.1732 c 0.6224,-0.6224 0.6224,-1.6315 0,-2.2539 -0.6224,-0.6224 -1.6315,-0.6224 -2.2539,0 z m 24.0133,15.0225 c 0,-3.0214 -1.6342,-5.6613 -4.0676,-7.083 -1.2131,-0.7087 -2.6244,-1.1154 -4.1308,-1.1154 -3.0214,0 -5.6614,1.6342 -7.083,4.0676 -0.7087,1.2131 -1.1155,2.6244 -1.1155,4.1308 0,3.0214 1.6343,5.6614 4.0676,7.083 1.2131,0.7087 2.6245,1.1155 4.1309,1.1155 3.0213,0 5.6613,-1.6343 7.083,-4.0677 0.7087,-1.213 1.1154,-2.6244 1.1154,-4.1308 m -3.1875,0 c 0,0.9199 -0.2473,1.782 -0.6802,2.5229 -0.8692,1.4879 -2.483,2.4881 -4.3307,2.4881 -0.9199,0 -1.7821,-0.2474 -2.5229,-0.6802 -1.4879,-0.8693 -2.4881,-2.4831 -2.4881,-4.3308 0,-0.9198 0.2474,-1.782 0.6802,-2.5229 0.8693,-1.4879 2.4831,-2.488 4.3308,-2.488 0.9198,0 1.782,0.2473 2.5229,0.6802 1.4878,0.8692 2.488,2.483 2.488,4.3307 m -43.0308,-37.5035 h 53.5055 v 53.5054 h -53.5055 z m -3.1875,-1.5937 v 56.6929 c 0,0.8802 0.7136,1.5937 1.5938,1.5937 h 56.6929 c 0.8802,0 1.5938,-0.7135 1.5938,-1.5937 V 739.42 c 0,-0.8802 -0.7136,-1.5938 -1.5938,-1.5938 h -56.6929 c -0.8802,0 -1.5938,0.7136 -1.5938,1.5938 m 44.6037,-60.446 c 0,-5.6199 -3.0402,-10.53 -7.5662,-13.1742 -2.2559,-1.3179 -4.8805,-2.0738 -7.6818,-2.0738 -5.6199,0 -10.53,3.0402 -13.1742,7.5662 -1.3179,2.2559 -2.0738,4.8805 -2.0738,7.6818 0,5.6199 3.0402,10.53 7.5663,13.1742 2.2558,1.3179 4.8804,2.0738 7.6817,2.0738 1.29,0 2.5425,-0.1602 3.7388,-0.4617 l -0.007,-0.1737 -1e-4,-1.2079 v -0.2357 -0.3877 -0.7361 -0.2743 l 0.0131,-0.303 c -1.1787,0.3846 -2.4373,0.5926 -3.7444,0.5926 -2.2147,0 -4.2902,-0.5965 -6.0738,-1.6385 -3.5806,-2.0919 -5.9867,-5.9758 -5.9867,-10.422 0,-2.2147 0.5965,-4.2902 1.6385,-6.0739 2.0919,-3.5805 5.9758,-5.9866 10.422,-5.9866 2.2147,0 4.2902,0.5965 6.0739,1.6385 3.5805,2.0918 5.9866,5.9758 5.9866,10.422 0,0.0785 -8e-4,0.1569 -0.002,0.235 l 0.3463,-0.009 1.2997,-0.008 h 1.0147 0.5274 c 10e-4,-0.0724 0.002,-0.145 0.002,-0.2176 m -8.4731,12.1435 c 0,-0.8802 -0.7136,-1.5937 -1.5938,-1.5937 -0.8802,0 -1.5937,0.7135 -1.5937,1.5937 v 34.8913 c 0,0.8802 0.7135,1.5937 1.5937,1.5937 0.8802,0 1.5938,-0.7135 1.5938,-1.5937 z m 8.4952,-13.1517 c 0,-0.8802 -0.7135,-1.5938 -1.5938,-1.5938 -0.8802,0 -1.5937,0.7136 -1.5937,1.5938 v 36.9623 c 0,0.8802 0.7135,1.5937 1.5937,1.5937 0.8803,0 1.5938,-0.7135 1.5938,-1.5937 z m -2.1953,35.5257 c -0.7934,0.3811 -1.1276,1.3333 -0.7464,2.1267 0.3811,0.7934 1.3332,1.1276 2.1266,0.7465 l 7.8746,-3.7828 c 0.7934,-0.3811 1.1277,-1.3333 0.7465,-2.1267 -0.3811,-0.7934 -1.3333,-1.1276 -2.1267,-0.7465 z m -8.5716,11.1312 c -0.7966,0.3744 -1.1389,1.3237 -0.7644,2.1203 0.3744,0.7966 1.3237,1.1388 2.1203,0.7644 l 16.7105,-7.8545 c 0.7966,-0.3744 1.1388,-1.3237 0.7644,-2.1203 -0.3744,-0.7966 -1.3237,-1.1388 -2.1203,-0.7644 z m 15.7947,-6.4121 c 0,0.8802 0.7135,1.5937 1.5938,1.5937 0.8802,0 1.5937,-0.7135 1.5937,-1.5937 v -7.0653 c 0,-0.8802 -0.7135,-1.5937 -1.5937,-1.5937 -0.8803,0 -1.5938,0.7135 -1.5938,1.5937 z M 291.0153,666.6169 c -0.8802,0 -1.5937,0.7135 -1.5937,1.5938 0,0.8802 0.7135,1.5937 1.5937,1.5937 h 56.693 c 0.8802,0 1.5937,-0.7135 1.5937,-1.5937 0,-0.8803 -0.7135,-1.5938 -1.5937,-1.5938 z m 12.5795,29.9402 c 0,0.8802 0.7135,1.5938 1.5938,1.5938 0.8802,0 1.5937,-0.7136 1.5937,-1.5938 v -14.1732 c 0,-0.8802 -0.7135,-1.5938 -1.5937,-1.5938 -0.8803,0 -1.5938,0.7136 -1.5938,1.5938 z m 1.5938,-15.767 c -0.8803,0 -1.5938,0.7136 -1.5938,1.5938 0,0.8802 0.7135,1.5937 1.5938,1.5937 h 14.1732 c 0.8802,0 1.5937,-0.7135 1.5937,-1.5937 0,-0.8802 -0.7135,-1.5938 -1.5937,-1.5938 z m 15.3001,0.4668 c -0.6224,-0.6224 -1.6315,-0.6224 -2.2539,0 -0.6224,0.6224 -0.6224,1.6315 0,2.2539 l 28.3465,28.3465 c 0.6224,0.6224 1.6315,0.6224 2.2539,0 0.6224,-0.6224 0.6224,-1.6315 0,-2.2539 z m -14.1732,14.1733 c -0.6224,-0.6224 -1.6315,-0.6224 -2.2539,0 -0.6224,0.6224 -0.6224,1.6315 0,2.2539 l 28.3465,28.3464 c 0.6224,0.6224 1.6315,0.6224 2.2539,0 0.6224,-0.6224 0.6224,-1.6315 0,-2.2539 z m 26.0926,28.3464 c -0.6224,0.6224 -0.6224,1.6315 0,2.2539 0.6224,0.6224 1.6315,0.6224 2.2539,0 l 14.1732,-14.1732 c 0.6224,-0.6224 0.6224,-1.6315 0,-2.2539 -0.6224,-0.6224 -1.6315,-0.6224 -2.2539,0 z M 250.588,687.9277 c 0.7371,-0.4811 0.9446,-1.4687 0.4635,-2.2057 -0.4812,-0.7371 -1.4687,-0.9446 -2.2058,-0.4634 -13.1406,8.5777 -17.4554,19.8727 -12.7119,33.4767 0.2898,0.8311 1.1985,1.27 2.0296,0.9802 0.8312,-0.2898 1.27,-1.1985 0.9802,-2.0296 -4.2446,-12.1732 -0.5073,-21.9565 11.4444,-29.7582 m 3.0875,-7.2312 c 0.3142,-0.8223 -0.0978,-1.7435 -0.92,-2.0576 -0.8223,-0.3141 -1.7435,0.0979 -2.0576,0.9201 l -14.548,38.0828 c -0.3141,0.8223 0.0978,1.7435 0.92,2.0576 0.8223,0.3141 1.7435,-0.0978 2.0576,-0.9201 z m 8.0186,10.2475 c 3.0231,-1.0855 5.0735,-3.6753 5.6094,-6.6237 0.0921,-0.5068 0.1395,-1.0242 0.1395,-1.5463 0,-0.4281 -0.0319,-0.8593 -0.0971,-1.2906 -0.0832,-0.5497 -0.2205,-1.0995 -0.4155,-1.6425 -1.0855,-3.0231 -3.6753,-5.0735 -6.6237,-5.6094 -0.5068,-0.0921 -1.0242,-0.1395 -1.5463,-0.1395 -0.4281,0 -0.8593,0.0319 -1.2906,0.0971 -0.5497,0.0832 -1.0995,0.2205 -1.6425,0.4155 -3.0231,1.0855 -5.0735,3.6753 -5.6094,6.6237 -0.0921,0.5068 -0.1395,1.0242 -0.1395,1.5463 0,0.4281 0.0318,0.8593 0.0971,1.2906 0.0831,0.5497 0.2205,1.0995 0.4155,1.6425 1.0855,3.0231 3.6753,5.0735 6.6237,5.6094 0.5068,0.0921 1.0242,0.1395 1.5463,0.1395 0.4281,0 0.8593,-0.0319 1.2906,-0.0971 0.5497,-0.0831 1.0994,-0.2205 1.6425,-0.4155 m -1.0772,-3 c -0.3445,0.1237 -0.6933,0.2111 -1.042,0.2639 -0.272,0.0411 -0.544,0.0612 -0.8139,0.0612 -0.3297,0 -0.6563,-0.03 -0.9763,-0.0881 -1.8664,-0.3393 -3.5065,-1.6365 -4.1937,-3.5504 -0.1237,-0.3446 -0.2111,-0.6933 -0.2639,-1.0421 -0.0411,-0.272 -0.0612,-0.5439 -0.0612,-0.8139 0,-0.3296 0.03,-0.6563 0.0881,-0.9763 0.3392,-1.8663 1.6365,-3.5065 3.5504,-4.1937 0.3446,-0.1237 0.6933,-0.2111 1.0421,-0.2639 0.272,-0.0411 0.5439,-0.0612 0.8139,-0.0612 0.3296,0 0.6563,0.03 0.9763,0.0881 1.8663,0.3393 3.5065,1.6365 4.1937,3.5505 0.1237,0.3445 0.2111,0.6933 0.2638,1.042 0.0412,0.272 0.0613,0.544 0.0613,0.8139 0,0.3297 -0.03,0.6563 -0.0881,0.9763 -0.3393,1.8664 -1.6365,3.5065 -3.5505,4.1937 m -10.5458,-1.5705 c 0.6701,-1.1704 1.0371,-2.4315 1.1267,-3.6923 0.0145,-0.2048 0.0218,-0.4096 0.0218,-0.6141 0,-2.9875 -1.545,-5.8917 -4.3044,-7.5025 -0.0214,-0.0125 -0.0428,-0.0248 -0.0642,-0.0371 -1.1705,-0.6702 -2.4315,-1.0371 -3.6924,-1.1267 -0.2048,-0.0146 -0.4096,-0.0218 -0.614,-0.0218 -2.9876,0 -5.8918,1.545 -7.5026,4.3044 -0.0124,0.0213 -0.0248,0.0427 -0.0371,0.0642 -0.6701,1.1704 -1.0371,2.4315 -1.1267,3.6923 -0.0145,0.2048 -0.0218,0.4096 -0.0218,0.6141 0,2.9875 1.545,5.8917 4.3044,7.5025 0.0214,0.0125 0.0428,0.0248 0.0642,0.0371 1.1705,0.6701 2.4315,1.0371 3.6924,1.1267 0.2048,0.0146 0.4096,0.0218 0.614,0.0218 2.9876,0 5.8918,-1.545 7.5026,-4.3044 0.0124,-0.0213 0.0248,-0.0427 0.0371,-0.0642 m -2.7662,-1.5837 c -0.008,0.0137 -0.0158,0.0274 -0.0237,0.041 -1.0198,1.7469 -2.8588,2.7238 -4.7498,2.7238 -0.1292,0 -0.2586,-0.005 -0.388,-0.0137 -0.7974,-0.0567 -1.5945,-0.2898 -2.3346,-0.7135 -0.0137,-0.008 -0.0274,-0.0157 -0.041,-0.0237 -1.747,-1.0198 -2.7239,-2.8588 -2.7239,-4.7497 0,-0.1292 0.005,-0.2586 0.0138,-0.3881 0.0567,-0.7973 0.2897,-1.5945 0.7134,-2.3346 0.008,-0.0137 0.0158,-0.0274 0.0237,-0.041 1.0198,-1.7469 2.8588,-2.7238 4.7498,-2.7238 0.1292,0 0.2586,0.005 0.388,0.0137 0.7974,0.0567 1.5945,0.2898 2.3346,0.7135 0.0137,0.008 0.0274,0.0157 0.041,0.0237 1.747,1.0198 2.7239,2.8588 2.7239,4.7497 0,0.1292 -0.005,0.2586 -0.0138,0.3881 -0.0567,0.7973 -0.2897,1.5945 -0.7134,2.3346 m 3.45,-5.5273 c -0.2945,-0.8295 -1.2056,-1.2631 -2.0351,-0.9686 -0.8295,0.2945 -1.2631,1.2057 -0.9686,2.0352 l 13.6409,38.4171 c 0.2945,0.8294 1.2057,1.2631 2.0351,0.9686 0.8295,-0.2946 1.2632,-1.2057 0.9686,-2.0352 z m 1.7247,5.7475 c -0.7224,-0.503 -1.7157,-0.3251 -2.2186,0.3973 -0.503,0.7223 -0.3251,1.7156 0.3972,2.2186 12.0353,8.3796 15.5347,18.235 10.7593,29.987 -0.3314,0.8154 0.061,1.7451 0.8765,2.0765 0.8154,0.3313 1.7451,-0.0611 2.0765,-0.8765 5.3644,-13.2013 1.3137,-24.6091 -11.8909,-33.8029 m 115.7062,26.1353 c 0,0.8802 0.7136,1.5938 1.5938,1.5938 0.8802,0 1.5937,-0.7136 1.5937,-1.5938 v -28.3465 c 0,-0.8802 -0.7135,-1.5937 -1.5937,-1.5937 -0.8802,0 -1.5938,0.7135 -1.5938,1.5937 z m 2.7207,-1.1269 c -0.6224,-0.6224 -1.6315,-0.6224 -2.2539,0 -0.6224,0.6224 -0.6224,1.6315 0,2.2539 l 14.1732,14.1732 c 0.6224,0.6224 1.6316,0.6224 2.2539,0 0.6224,-0.6224 0.6224,-1.6315 0,-2.2539 z m -2.2539,-28.3465 c -0.6224,0.6224 -0.6224,1.6315 0,2.2539 0.6224,0.6224 1.6315,0.6224 2.2539,0 l 14.1732,-14.1732 c 0.6224,-0.6224 0.6224,-1.6316 0,-2.2539 -0.6223,-0.6224 -1.6315,-0.6224 -2.2539,0 z m 13.7064,43.6466 c 0,0.8803 0.7136,1.5938 1.5938,1.5938 0.8802,0 1.5937,-0.7135 1.5937,-1.5938 v -56.6929 c 0,-0.8802 -0.7135,-1.5937 -1.5937,-1.5937 -0.8802,0 -1.5938,0.7135 -1.5938,1.5937 z m 7.6005,-15.3001 c -0.6224,0.6224 -0.6224,1.6315 0,2.2539 0.6224,0.6224 1.6315,0.6224 2.2539,0 l 28.3465,-28.3465 c 0.6224,-0.6224 0.6224,-1.6315 0,-2.2539 -0.6224,-0.6224 -1.6315,-0.6224 -2.2539,0 z m 2.2539,-28.3465 c -0.6224,-0.6224 -1.6315,-0.6224 -2.2539,0 -0.6224,0.6224 -0.6224,1.6315 0,2.2539 l 28.3465,28.3465 c 0.6224,0.6224 1.6315,0.6224 2.2539,0 0.6224,-0.6224 0.6224,-1.6315 0,-2.2539 z m -31.0672,29.4734 c 0,0.8802 0.7136,1.5938 1.5938,1.5938 0.8802,0 1.5937,-0.7136 1.5937,-1.5938 v -28.3465 c 0,-0.8802 -0.7135,-1.5937 -1.5937,-1.5937 -0.8802,0 -1.5938,0.7135 -1.5938,1.5937 z M 164.2676,639.5399 c -0.8802,0 -1.5937,0.7136 -1.5937,1.5938 0,0.8802 0.7135,1.5937 1.5937,1.5937 h 7.0867 c 0.8802,0 1.5937,-0.7135 1.5937,-1.5937 0,-0.8802 -0.7135,-1.5938 -1.5937,-1.5938 z m 1.127,0.4668 c -0.6224,-0.6224 -1.6315,-0.6224 -2.2539,0 -0.6224,0.6224 -0.6224,1.6315 0,2.2539 l 14.1732,14.1732 c 0.6224,0.6224 1.6315,0.6224 2.2539,0 0.6224,-0.6224 0.6224,-1.6315 0,-2.2539 z m 11.9193,14.1732 c -0.6224,0.6224 -0.6224,1.6315 0,2.2539 0.6224,0.6224 1.6315,0.6224 2.2539,0 l 14.1733,-14.1732 c 0.6224,-0.6224 0.6224,-1.6315 0,-2.2539 -0.6224,-0.6224 -1.6315,-0.6224 -2.2539,0 z m 8.2136,-14.64 c -0.8802,0 -1.5938,0.7136 -1.5938,1.5938 0,0.8802 0.7136,1.5937 1.5938,1.5937 h 7.0866 c 0.8802,0 1.5938,-0.7135 1.5938,-1.5937 0,-0.8802 -0.7136,-1.5938 -1.5938,-1.5938 z m -4.3224,-23.5866 c 1.396,3.2231 2.306,6.9448 2.7369,11.1688 0.0893,0.8757 0.8716,1.5132 1.7472,1.4238 0.8757,-0.0893 1.5131,-0.8715 1.4238,-1.7472 -0.4772,-4.6782 -1.5151,-8.8112 -3.1067,-12.3949 -0.2039,0.1226 -0.4259,0.2498 -0.667,0.3833 l -0.8728,0.4868 -1.0792,0.5754 c -0.0686,0.0364 -0.128,0.0715 -0.1822,0.104 m -31.1449,-18.9327 c -0.88,0.0189 -1.5781,0.7476 -1.5592,1.6276 0.0189,0.88 0.7476,1.578 1.6276,1.5591 12.2041,-0.262 21.0601,2.6661 26.6845,8.8499 l 0.0816,-0.0873 0.6103,-0.6733 0.4526,-0.5328 0.6006,-0.6808 0.4083,-0.3976 c -6.2451,-6.7008 -15.918,-9.9437 -28.9063,-9.6648 m 56.6929,3.1867 c 0.88,0.0189 1.6087,-0.6791 1.6276,-1.5591 0.0189,-0.88 -0.6791,-1.6087 -1.5591,-1.6276 -22.4457,-0.4819 -34.99,9.5536 -37.0529,29.7781 -0.0893,0.8757 0.5482,1.6579 1.4238,1.7472 0.8757,0.0894 1.658,-0.5481 1.7473,-1.4238 1.887,-18.5001 12.9648,-27.3623 33.8133,-26.9148 m -33.8051,26.7531 c 0,-0.8802 -0.7135,-1.5937 -1.5937,-1.5937 -0.8802,0 -1.5938,0.7135 -1.5938,1.5937 v 14.1733 c 0,0.8802 0.7136,1.5937 1.5938,1.5937 0.8802,0 1.5937,-0.7135 1.5937,-1.5937 z m 14.1732,0 c 0,-0.8802 -0.7135,-1.5937 -1.5937,-1.5937 -0.8802,0 -1.5938,0.7135 -1.5938,1.5937 v 14.1733 c 0,0.8802 0.7136,1.5937 1.5938,1.5937 0.8802,0 1.5937,-0.7135 1.5937,-1.5937 z m -7.0866,0 c 0,-0.8802 -0.7135,-1.5937 -1.5937,-1.5937 -0.8802,0 -1.5938,0.7135 -1.5938,1.5937 v 14.1733 c 0,0.8802 0.7136,1.5937 1.5938,1.5937 0.8802,0 1.5937,-0.7135 1.5937,-1.5937 z m 26.6688,-20.5442 c 0.879,0.0464 1.6291,-0.6286 1.6755,-1.5075 0.0464,-0.879 -0.6286,-1.6292 -1.5076,-1.6755 -17.6815,-0.9328 -27.8816,6.7173 -30.0101,22.6402 -0.1166,0.8724 0.4961,1.6742 1.3685,1.7908 0.8725,0.1167 1.6742,-0.496 1.7909,-1.3685 1.8988,-14.2049 10.5964,-20.7281 26.6828,-19.8795 m -32.385,6.7221 c -5.3986,-7.6094 -13.6025,-10.6649 -24.4636,-9.0134 -0.8702,0.1324 -1.4684,0.9451 -1.336,1.8153 0.1323,0.8702 0.945,1.4683 1.8152,1.336 9.949,-1.5129 17.2004,1.2531 21.9146,8.4638 0.2464,-0.2841 0.5682,-0.716 0.909,-1.1642 l 0.7571,-1.0091 c 0.1321,-0.1597 0.2675,-0.3023 0.4037,-0.4284 m 4.6598,-6.4642 c -0.3597,-0.073 -0.7463,-0.0228 -1.0921,0.1699 -0.6684,0.3725 -0.9643,1.1548 -0.7486,1.858 l 0.3675,-0.4054 0.4526,-0.5328 0.6006,-0.6808 z m 2.2746,9.2508 c 0.491,0.398 1.1941,0.4806 1.78,0.154 0.5803,-0.3233 0.8798,-0.9555 0.8076,-1.5767 -0.157,0.092 -0.3239,0.1868 -0.5011,0.2849 l -0.8728,0.4868 -1.0792,0.5754 c -0.0491,0.026 -0.0934,0.0514 -0.1345,0.0756 m -82.39786,2.9989 c -0.01365,-4.4889 -2.44693,-8.4086 -6.06471,-10.5221 -1.80834,-1.0565 -3.91226,-1.6626 -6.15783,-1.6626 -4.50469,0 -8.44054,2.4368 -10.56007,6.0648 -1.05646,1.8083 -1.66252,3.9123 -1.66252,6.1578 l 0.52404,0.6634 0.10648,0.1142 1.552,0.0752 1.05361,0.0903 c -0.03215,-0.31 -0.04863,-0.6246 -0.04863,-0.9431 0,-1.659 0.44665,-3.2137 1.22726,-4.5499 1.56712,-2.6824 4.4768,-4.4852 7.80783,-4.4852 1.659,0 3.21377,0.4467 4.54992,1.2273 2.68243,1.5671 4.48517,4.4768 4.48517,7.8078 0,0.3295 -0.01761,0.6548 -0.05196,0.9752 h 0.46762 l 0.92884,-0.0341 1.00763,-0.0243 0.3286,-0.3431 z m -22.85129,-1.5196 c -0.88021,0 -1.59375,0.7135 -1.59375,1.5937 0,0.8802 0.71354,1.5938 1.59375,1.5938 H 97.2611 c 0.88021,0 1.59375,-0.7136 1.59375,-1.5938 0,-0.8802 -0.71354,-1.5937 -1.59375,-1.5937 z m 1.43399,0.8982 c -0.38411,-0.7919 -1.33752,-1.1226 -2.12949,-0.7385 -0.79197,0.3842 -1.1226,1.3376 -0.73849,2.1295 l 10.31119,21.2599 c 0.38411,0.792 1.33752,1.1226 2.12949,0.7385 0.79197,-0.3841 1.1226,-1.3375 0.73849,-2.1295 z m 21.24042,1.4251 c 0.40293,-0.7826 0.09517,-1.7436 -0.68739,-2.1465 -0.78257,-0.403 -1.7436,-0.0952 -2.14653,0.6874 l -10.94626,21.2598 c -0.40292,0.7826 -0.09517,1.7436 0.6874,2.1465 0.78256,0.403 1.7436,0.0952 2.14652,-0.6874 z m -12.10121,18.9582 c -0.86822,-0.1447 -1.68937,0.4418 -1.83407,1.3101 -0.14471,0.8682 0.44182,1.6893 1.31005,1.8341 l 16.94667,2.8244 c -0.0261,-0.9642 0.0718,-2.2428 0.2778,-3.1852 z m 25.30695,7.4493 16.6887,2.7815 c 0.8683,0.1447 1.6894,-0.4419 1.8341,-1.3101 0.1447,-0.8682 -0.4418,-1.6894 -1.31,-1.8341 l -16.6988,-2.7831 -0.06,0.5206 -0.099,0.8844 -0.1632,0.927 z m 2.0523,-2.0613 c 0,-2.38 -1.2872,-4.4596 -3.2041,-5.5795 -0.9557,-0.5583 -2.0675,-0.8789 -3.2543,-0.8789 -2.38,0 -4.4597,1.2872 -5.5795,3.2041 -0.5584,0.9557 -0.879,2.0675 -0.879,3.2543 0,2.38 1.2873,4.4596 3.2041,5.5795 0.9557,0.5583 2.0676,0.879 3.2544,0.879 2.38,0 4.4596,-1.2873 5.5795,-3.2041 0.5583,-0.9557 0.8789,-2.0676 0.8789,-3.2544 m -3.1875,0 c 0,0.6003 -0.1612,1.163 -0.4437,1.6465 -0.5674,0.9713 -1.6209,1.6245 -2.8272,1.6245 -0.6003,0 -1.163,-0.1612 -1.6465,-0.4437 -0.9713,-0.5675 -1.6245,-1.6209 -1.6245,-2.8273 0,-0.6002 0.1612,-1.1629 0.4437,-1.6464 0.5675,-0.9713 1.6209,-1.6245 2.8273,-1.6245 0.6002,0 1.1629,0.1612 1.6464,0.4437 0.9713,0.5674 1.6245,1.6209 1.6245,2.8272 m 30.626,-18.0633 c -0.0136,-4.4888 -2.4469,-8.4086 -6.0647,-10.5221 -1.8083,-1.0565 -3.9122,-1.6625 -6.1578,-1.6625 -4.5047,0 -8.4405,2.4367 -10.5601,6.0647 -1.0564,1.8084 -1.6625,3.9123 -1.6625,6.1578 l 0.5241,0.6634 0.1064,0.1142 1.552,0.0753 1.0536,0.0902 c -0.0321,-0.31 -0.0486,-0.6246 -0.0486,-0.9431 0,-1.659 0.4467,-3.2137 1.2273,-4.5499 1.5671,-2.6824 4.4768,-4.4851 7.8078,-4.4851 1.659,0 3.2138,0.4466 4.5499,1.2272 2.6825,1.5671 4.4852,4.4768 4.4852,7.8078 0,0.3295 -0.0176,0.6549 -0.052,0.9752 h 0.4677 l 0.9288,-0.0341 1.0076,-0.0243 0.3286,-0.3431 z m -22.8512,-1.5196 c -0.8802,0 -1.5938,0.7135 -1.5938,1.5938 0,0.8802 0.7136,1.5937 1.5938,1.5937 h 21.2574 c 0.8802,0 1.5938,-0.7135 1.5938,-1.5937 0,-0.8803 -0.7136,-1.5938 -1.5938,-1.5938 z m 1.4339,0.8983 c -0.3841,-0.792 -1.3375,-1.1227 -2.1294,-0.7385 -0.792,0.3841 -1.1226,1.3375 -0.7385,2.1294 l 10.3112,21.2599 c 0.3841,0.792 1.3375,1.1226 2.1294,0.7385 0.792,-0.3841 1.1227,-1.3375 0.7385,-2.1295 z m 21.2405,1.425 c 0.4029,-0.7826 0.0951,-1.7436 -0.6874,-2.1465 -0.7826,-0.4029 -1.7436,-0.0952 -2.1466,0.6874 l -10.9462,21.2598 c -0.4029,0.7826 -0.0952,1.7436 0.6874,2.1466 0.7826,0.4029 1.7436,0.0951 2.1465,-0.6874 z m -74.5991,86.5833 c 0.11813,-3.9862 -2.50489,-7.8397 -7.32358,-10.8336 -5.29713,-3.2913 -13.21763,-5.5428 -22.13774,-5.8071 -0.58778,-0.0174 -1.17176,-0.026 -1.75143,-0.026 -13.13538,0 -23.87929,4.4959 -27.340288,10.4656 -0.81137,1.3995 -1.257586,2.8849 -1.303295,4.4274 -0.118127,3.9862 2.504892,7.8397 7.323583,10.8336 5.29713,3.2912 13.21763,5.5428 22.13774,5.8071 0.58778,0.0174 1.17176,0.026 1.75143,0.026 13.13539,0 23.87929,-4.496 27.34029,-10.4656 0.81137,-1.3995 1.25759,-2.8849 1.30329,-4.4274 m -3.1861,-0.0944 c -0.03025,1.0208 -0.339,1.9989 -0.87476,2.923 -3.11192,5.3676 -13.03831,8.8769 -24.58272,8.8769 -0.54842,0 -1.10092,-0.008 -1.65702,-0.0246 -8.26695,-0.245 -15.63319,-2.2736 -20.54995,-5.3284 -3.5672,-2.2164 -5.910537,-4.9659 -5.819681,-8.0318 0.030251,-1.0208 0.339001,-1.999 0.874761,-2.9231 3.11192,-5.3675 13.03831,-8.8768 24.58272,-8.8768 0.54842,0 1.10092,0.008 1.65702,0.0246 8.26695,0.245 15.63319,2.2735 20.54995,5.3284 3.5672,2.2164 5.91054,4.9659 5.81968,8.0318 m 3.16159,-10.2702 c -0.29413,-3.6412 -2.86848,-7.1207 -7.29907,-9.8735 -5.29713,-3.2912 -13.21763,-5.5427 -22.13774,-5.807 -0.58778,-0.0175 -1.17176,-0.026 -1.75143,-0.026 -13.13538,0 -23.87929,4.4959 -27.340288,10.4656 -0.81137,1.3995 -1.257586,2.8849 -1.303295,4.4273 -0.00531,0.1794 -0.00508,0.3584 6.52e-4,0.5372 l 1.42038,-0.0107 c 0.699867,2e-4 1.274442,-0.005 1.768402,10e-4 -0.00648,-0.1437 -0.00763,-0.2881 -0.00333,-0.4333 0.030251,-1.0208 0.339001,-1.9989 0.874761,-2.923 3.11192,-5.3675 13.03831,-8.8768 24.58272,-8.8768 0.54842,0 1.10092,0.008 1.65702,0.0246 8.26695,0.2449 15.63319,2.2735 20.54995,5.3284 3.17331,1.9716 5.37812,4.3652 5.76237,7.028 l 0.54474,0.0829 0.98287,0.0587 c 0.56939,0.0155 1.16852,0.002 1.69129,-0.004 m -3.13742,9.4781 c 0,0.8802 0.71355,1.5938 1.59375,1.5938 0.88021,0 1.59375,-0.7136 1.59375,-1.5938 v -28.3464 c 0,-0.8802 -0.71354,-1.5938 -1.59375,-1.5938 -0.8802,0 -1.59375,0.7136 -1.59375,1.5938 z m -56.69294,0 c 0,0.8802 0.713546,1.5938 1.59375,1.5938 0.880204,0 1.59375,-0.7136 1.59375,-1.5938 v -28.3464 c 0,-0.8802 -0.713546,-1.5938 -1.59375,-1.5938 -0.880204,0 -1.59375,0.7136 -1.59375,1.5938 z m 59.83036,-28.1467 c -0.29413,-3.6412 -2.86848,-7.1207 -7.29907,-9.8735 -5.29713,-3.2912 -13.21763,-5.5427 -22.13774,-5.8071 -0.58778,-0.0174 -1.17176,-0.026 -1.75143,-0.026 -13.13538,0 -23.87929,4.496 -27.340288,10.4656 -0.81137,1.3995 -1.257586,2.885 -1.303295,4.4274 -0.00531,0.1793 -0.00508,0.3584 6.52e-4,0.5371 l 1.42038,-0.0106 c 0.699867,10e-5 1.274442,-0.005 1.768402,10e-4 -0.00648,-0.1436 -0.00763,-0.2881 -0.00333,-0.4332 0.030251,-1.0208 0.339001,-1.9989 0.874761,-2.923 3.11192,-5.3676 13.03831,-8.8769 24.58272,-8.8769 0.54842,0 1.10092,0.008 1.65702,0.0246 8.26695,0.245 15.63319,2.2736 20.54995,5.3285 3.17331,1.9716 5.37812,4.3651 5.76237,7.028 l 0.54474,0.0829 0.98287,0.0587 c 0.56939,0.0155 1.16852,0.002 1.69129,-0.004 m 0.01417,9.1124 c -0.29413,-3.6412 -2.86848,-7.1207 -7.29907,-9.8735 -5.29713,-3.2912 -13.21763,-5.5427 -22.13774,-5.8071 -0.58778,-0.0174 -1.17176,-0.026 -1.75143,-0.026 -13.13538,0 -23.87929,4.496 -27.340287,10.4657 -0.81137,1.3994 -1.257587,2.8849 -1.303295,4.4273 -0.00531,0.1793 -0.00508,0.3584 6.51e-4,0.5371 l 1.420381,-0.0106 c 0.699866,2e-4 1.274442,-0.005 1.768401,10e-4 -0.00648,-0.1437 -0.00763,-0.2881 -0.00333,-0.4333 0.030251,-1.0208 0.339001,-1.9989 0.874761,-2.923 3.11192,-5.3675 13.03831,-8.8769 24.58272,-8.8769 0.54842,0 1.10092,0.008 1.65702,0.0246 8.26695,0.245 15.63319,2.2736 20.54995,5.3285 3.17331,1.9716 5.37812,4.3651 5.76237,7.028 l 0.54474,0.0829 0.98287,0.0587 c 0.56939,0.0155 1.16852,0.002 1.69129,-0.004 m -21.25113,19.2908 c 0.02999,-1.0122 -0.49832,-2.1116 -1.89681,-2.9919 -1.41955,-0.8936 -3.84461,-1.5754 -6.63969,-1.6583 -0.19605,-0.006 -0.39047,-0.009 -0.583,-0.009 -4.01641,0 -6.97694,1.3675 -7.81475,2.7903 -0.25483,0.4328 -0.3853,0.8879 -0.39914,1.3548 -0.02999,1.0122 0.49832,2.1115 1.89682,2.9919 1.41954,0.8935 3.8446,1.5754 6.63969,1.6582 0.19604,0.006 0.39046,0.009 0.58299,0.009 4.01641,0 6.97694,-1.3675 7.81475,-2.7904 0.25483,-0.4327 0.3853,-0.8878 0.39914,-1.3547 m -3.1861,-0.0944 c 0.0017,-0.0564 0.0087,-0.1146 0.04026,-0.1682 -0.54334,0.9227 -2.78357,1.2202 -5.06805,1.2202 -0.16135,0 -0.32428,-0.002 -0.48858,-0.007 -2.09985,-0.0622 -3.95992,-0.4923 -5.03606,-1.1697 -0.08945,-0.0563 -0.413,-0.0567 -0.40876,-0.1999 -0.0017,0.0564 -0.0087,0.1146 -0.04026,0.1682 0.54334,-0.9228 2.78357,-1.2202 5.06805,-1.2202 0.16135,0 0.32428,0.002 0.48858,0.007 2.09985,0.0623 3.95992,0.4924 5.03606,1.1698 0.08945,0.0563 0.413,0.0567 0.40876,0.1999 m 8.76811,-14.8852 c 0.8802,0 1.59375,-0.7135 1.59375,-1.5937 0,-0.8802 -0.71355,-1.5938 -1.59375,-1.5938 -0.88042,0 -1.59396,0.7136 -1.59396,1.5938 0,0.8802 0.71354,1.5937 1.59396,1.5937 m -2.1e-4,-3.1875 c -0.88021,0 -1.59375,0.7136 -1.59375,1.5938 0,0.8802 0.71354,1.5937 1.59375,1.5937 h 0.06191 c 0.88021,0 1.59375,-0.7135 1.59375,-1.5937 0,-0.8802 -0.71354,-1.5938 -1.59375,-1.5938 z m 6.46278,3.6411 c 0,-0.8802 -0.71354,-1.5938 -1.59375,-1.5938 -0.8802,0 -1.59375,0.7136 -1.59375,1.5938 v 0.0352 c 0,0.8802 0.71355,1.5938 1.59375,1.5938 0.88021,0 1.59375,-0.7136 1.59375,-1.5938 z m -9.67595,-3.1712 c 0,-0.8802 -0.71354,-1.5938 -1.59375,-1.5938 -0.8802,0 -1.59375,0.7136 -1.59375,1.5938 0,0.8802 0.71355,1.5937 1.59375,1.5937 0.88021,0 1.59375,-0.7135 1.59375,-1.5937 m 3.50851,-6.6946 c 0.8802,0 1.59375,-0.7135 1.59375,-1.5937 0,-0.8802 -0.71355,-1.5938 -1.59375,-1.5938 -0.88042,0 -1.59396,0.7136 -1.59396,1.5938 0,0.8802 0.71354,1.5937 1.59396,1.5937 m -2.1e-4,-3.1875 c -0.88021,0 -1.59375,0.7136 -1.59375,1.5938 0,0.8802 0.71354,1.5937 1.59375,1.5937 h 0.06191 c 0.8802,0 1.59375,-0.7135 1.59375,-1.5937 0,-0.8802 -0.71355,-1.5938 -1.59375,-1.5938 z m 6.46279,3.6411 c 0,-0.8802 -0.71355,-1.5938 -1.59375,-1.5938 -0.88021,0 -1.59375,0.7136 -1.59375,1.5938 v 0.0352 c 0,0.8802 0.71354,1.5938 1.59375,1.5938 0.8802,0 1.59375,-0.7136 1.59375,-1.5938 z m -9.67596,-3.1712 c 0,-0.8802 -0.71354,-1.5938 -1.59375,-1.5938 -0.8802,0 -1.59375,0.7136 -1.59375,1.5938 0,0.8802 0.71355,1.5937 1.59375,1.5937 0.88021,0 1.59375,-0.7135 1.59375,-1.5937 m 3.1519,-6.9621 c 0.8802,0 1.59375,-0.7135 1.59375,-1.5937 0,-0.8802 -0.71355,-1.5938 -1.59375,-1.5938 -0.88041,0 -1.59396,0.7136 -1.59396,1.5938 0,0.8802 0.71355,1.5937 1.59396,1.5937 m -2.1e-4,-3.1875 c -0.8802,0 -1.59375,0.7136 -1.59375,1.5938 0,0.8802 0.71355,1.5937 1.59375,1.5937 h 0.06192 c 0.8802,0 1.59375,-0.7135 1.59375,-1.5937 0,-0.8802 -0.71355,-1.5938 -1.59375,-1.5938 z m 6.46279,3.6411 c 0,-0.8802 -0.71355,-1.5938 -1.59375,-1.5938 -0.88021,0 -1.59375,0.7136 -1.59375,1.5938 v 0.0352 c 0,0.8802 0.71354,1.5938 1.59375,1.5938 0.8802,0 1.59375,-0.7136 1.59375,-1.5938 z m -9.67595,-3.1712 c 0,-0.8802 -0.71355,-1.5938 -1.59375,-1.5938 -0.88021,0 -1.59375,0.7136 -1.59375,1.5938 0,0.8802 0.71354,1.5937 1.59375,1.5937 0.8802,0 1.59375,-0.7135 1.59375,-1.5937 M 13.85491,644.4345 c 0,0.8802 0.71355,1.5937 1.59375,1.5937 0.88021,0 1.59375,-0.7135 1.59375,-1.5937 v -42.5197 c 0,-0.8802 -0.71354,-1.5938 -1.59375,-1.5938 -0.8802,0 -1.59375,0.7136 -1.59375,1.5938 z m 3.17747,0.1785 c 0.09859,-0.8747 -0.53056,-1.6637 -1.40522,-1.7622 -0.87467,-0.0986 -1.66364,0.5305 -1.76222,1.4052 -0.71261,6.3227 2.5026,9.5435 8.83187,8.8494 0.87496,-0.096 1.50646,-0.8831 1.41051,-1.758 -0.09595,-0.875 -0.88303,-1.5065 -1.75799,-1.4105 -4.29958,0.4715 -5.80065,-1.0322 -5.31695,-5.3239 m 5.49069,-1.7723 c -0.8802,0 -1.59375,0.7136 -1.59375,1.5938 0,0.8802 0.71355,1.5937 1.59375,1.5937 h 28.34647 c 0.88021,0 1.59375,-0.7135 1.59375,-1.5937 0,-0.8802 -0.71354,-1.5938 -1.59375,-1.5938 z m 0,14.1733 c -0.8802,0 -1.59375,0.7135 -1.59375,1.5937 0,0.8802 0.71355,1.5938 1.59375,1.5938 h 28.34647 c 0.88021,0 1.59375,-0.7136 1.59375,-1.5938 0,-0.8802 -0.71354,-1.5937 -1.59375,-1.5937 z m -1.59375,1.5937 c 0,0.8802 0.71355,1.5938 1.59375,1.5938 0.8802,0 1.59375,-0.7136 1.59375,-1.5938 v -14.1732 c 0,-0.8802 -0.71355,-1.5938 -1.59375,-1.5938 -0.8802,0 -1.59375,0.7136 -1.59375,1.5938 z m 28.34647,0 c 0,0.8802 0.71355,1.5938 1.59375,1.5938 0.88021,0 1.59375,-0.7136 1.59375,-1.5938 v -14.1732 c 0,-0.8802 -0.71354,-1.5938 -1.59375,-1.5938 -0.8802,0 -1.59375,0.7136 -1.59375,1.5938 z m 7.09883,-14.1732 c 0,0.8802 0.71355,1.5937 1.59375,1.5937 0.8802,0 1.59375,-0.7135 1.59375,-1.5937 v -42.5197 c 0,-0.8802 -0.71355,-1.5938 -1.59375,-1.5938 -0.8802,0 -1.59375,0.7136 -1.59375,1.5938 z M 22.52307,592.9876 c -0.8802,0 -1.59375,0.7136 -1.59375,1.5938 0,0.8802 0.71355,1.5937 1.59375,1.5937 h 28.34647 c 0.88021,0 1.59375,-0.7135 1.59375,-1.5937 0,-0.8802 -0.71354,-1.5938 -1.59375,-1.5938 z m 28.52497,56.9498 c -0.87467,-0.0986 -1.66364,0.5306 -1.76222,1.4052 -0.09858,0.8747 0.53056,1.6637 1.40523,1.7622 6.33186,0.7137 9.55668,-2.5056 8.86157,-8.844 -0.09595,-0.875 -0.88303,-1.5065 -1.75799,-1.4106 -0.87496,0.096 -1.50647,0.8831 -1.41051,1.758 0.47252,4.3088 -1.03521,5.8139 -5.33608,5.3292 m 5.33954,-48.2255 c -0.11203,0.8731 0.5049,1.6716 1.37794,1.7837 0.87305,0.112 1.67161,-0.5049 1.78364,-1.378 0.82293,-6.4131 -2.3871,-9.7292 -8.82895,-9.1229 -0.87634,0.0824 -1.51988,0.8597 -1.43741,1.736 0.08248,0.8764 0.85975,1.5199 1.73608,1.4374 4.40898,-0.4149 5.9315,1.1579 5.3687,5.5438 m -34.01314,-5.5437 c 0.87636,0.0821 1.65335,-0.5618 1.73543,-1.4382 0.08209,-0.8763 -0.5618,-1.6533 -1.43816,-1.7354 -6.42855,-0.6022 -9.62894,2.7154 -8.80375,9.1237 0.11242,0.873 0.91125,1.4896 1.78425,1.3772 0.87299,-0.1124 1.48957,-0.9113 1.37715,-1.7843 -0.56442,-4.3832 0.95146,-5.9546 5.34508,-5.543 m 5.65272,36.9937 c 0.62187,-0.6229 0.621,-1.632 -0.0019,-2.2539 -0.62293,-0.6218 -1.63204,-0.621 -2.2539,0.002 l -5.30276,5.3119 c -0.62186,0.6229 -0.62099,1.632 0.0019,2.2539 0.62294,0.6219 1.63204,0.621 2.2539,-0.002 l 5.30276,-5.312 z m -0.0019,-2.2539 c -0.62293,-0.6218 -1.63204,-0.621 -2.2539,0.002 -0.62186,0.6229 -0.62099,1.632 0.0019,2.2539 l 5.32106,5.3119 c 0.62294,0.6219 1.63204,0.621 2.25391,-0.002 0.62186,-0.623 0.62099,-1.6321 -0.0019,-2.2539 l -5.32107,-5.312 z m 9.55669,2.1902 c -0.8802,0 -1.59375,0.7135 -1.59375,1.5937 0,0.8802 0.71355,1.5938 1.59375,1.5938 h 14.17324 c 0.8802,0 1.59375,-0.7136 1.59375,-1.5938 0,-0.8802 -0.71355,-1.5937 -1.59375,-1.5937 z M 28.0272,618.9887 c 0.62187,-0.6229 0.621,-1.632 -0.0019,-2.2539 -0.62293,-0.6219 -1.63204,-0.621 -2.2539,0.002 l -5.30276,5.312 c -0.62186,0.6229 -0.62099,1.632 0.0019,2.2539 0.62294,0.6218 1.63204,0.621 2.2539,-0.002 l 5.30276,-5.3119 z m -0.0019,-2.2539 c -0.62293,-0.6219 -1.63204,-0.621 -2.2539,0.002 -0.62186,0.623 -0.62099,1.6321 0.0019,2.2539 l 5.32106,5.312 c 0.62294,0.6218 1.63204,0.621 2.25391,-0.002 0.62186,-0.6229 0.62099,-1.632 -0.0019,-2.2539 l -5.32107,-5.3119 z m 9.55669,2.1901 c -0.8802,0 -1.59375,0.7136 -1.59375,1.5938 0,0.8802 0.71355,1.5937 1.59375,1.5937 h 14.17324 c 0.8802,0 1.59375,-0.7135 1.59375,-1.5937 0,-0.8802 -0.71355,-1.5938 -1.59375,-1.5938 z m -9.55475,-14.1094 c 0.62187,-0.623 0.621,-1.6321 -0.0019,-2.2539 -0.62293,-0.6219 -1.63204,-0.621 -2.2539,0.002 l -5.30276,5.3119 c -0.62186,0.623 -0.62099,1.6321 0.0019,2.2539 0.62294,0.6219 1.63204,0.621 2.2539,-0.002 z m -0.0019,-2.2539 c -0.62293,-0.6219 -1.63204,-0.621 -2.2539,0.002 -0.62186,0.6229 -0.62099,1.6321 0.0019,2.2539 l 5.32106,5.3119 c 0.62294,0.6219 1.63204,0.621 2.25391,-0.002 0.62186,-0.623 0.62099,-1.6321 -0.0019,-2.2539 z m 9.55669,2.1901 c -0.8802,0 -1.59375,0.7135 -1.59375,1.5937 0,0.8803 0.71355,1.5938 1.59375,1.5938 h 14.17324 c 0.8802,0 1.59375,-0.7135 1.59375,-1.5938 0,-0.8802 -0.71355,-1.5937 -1.59375,-1.5937 z m 190.46529,36.068 c -0.8802,0 -1.5937,0.7135 -1.5937,1.5937 0,0.8802 0.7135,1.5938 1.5937,1.5938 h 14.1732 c 0.8802,0 1.5938,-0.7136 1.5938,-1.5938 0,-0.8802 -0.7136,-1.5937 -1.5938,-1.5937 z m 13.0463,0.4668 c -0.6224,0.6224 -0.6224,1.6315 0,2.2539 0.6224,0.6224 1.6315,0.6224 2.2539,0 l 14.1732,-14.1733 c 0.6224,-0.6224 0.6224,-1.6315 0,-2.2539 -0.6224,-0.6224 -1.6315,-0.6224 -2.2539,0 z m 13.7064,-13.0463 c 0,0.8802 0.7136,1.5937 1.5938,1.5937 0.8802,0 1.5937,-0.7135 1.5937,-1.5937 v -28.3465 c 0,-0.8802 -0.7135,-1.5937 -1.5937,-1.5937 -0.8802,0 -1.5938,0.7135 -1.5938,1.5937 z m -28.3464,14.1732 c 0,0.8802 0.7135,1.5938 1.5937,1.5938 0.8802,0 1.5938,-0.7136 1.5938,-1.5938 v -42.5197 c 0,-0.8802 -0.7136,-1.5937 -1.5938,-1.5937 -0.8802,0 -1.5937,0.7135 -1.5937,1.5937 z M 228.0472,598.3 c -0.8802,0 -1.5937,0.7135 -1.5937,1.5937 0,0.8802 0.7135,1.5938 1.5937,1.5938 h 28.3465 c 0.8802,0 1.5937,-0.7136 1.5937,-1.5938 0,-0.8802 -0.7135,-1.5937 -1.5937,-1.5937 z m 12.5795,44.1134 c 0,0.8802 0.7135,1.5938 1.5937,1.5938 0.8802,0 1.5938,-0.7136 1.5938,-1.5938 v -14.1732 c 0,-0.8802 -0.7136,-1.5938 -1.5938,-1.5938 -0.8802,0 -1.5937,0.7136 -1.5937,1.5938 z m 1.5937,-15.767 c -0.8802,0 -1.5937,0.7136 -1.5937,1.5938 0,0.8802 0.7135,1.5937 1.5937,1.5937 h 14.1733 c 0.8802,0 1.5937,-0.7135 1.5937,-1.5937 0,-0.8802 -0.7135,-1.5938 -1.5937,-1.5938 z m 0,22.9816 c -0.8802,0 -1.5937,0.7135 -1.5937,1.5937 0,0.8803 0.7135,1.5938 1.5937,1.5938 h 14.1733 c 0.8802,0 1.5937,-0.7135 1.5937,-1.5938 0,-0.8802 -0.7135,-1.5937 -1.5937,-1.5937 z m 13.0463,0.4668 c -0.6224,0.6224 -0.6224,1.6315 0,2.2539 0.6224,0.6224 1.6315,0.6224 2.2539,0 l 14.1733,-14.1732 c 0.6224,-0.6224 0.6224,-1.6315 0,-2.2539 -0.6224,-0.6224 -1.6315,-0.6224 -2.2539,0 z m 13.7065,-13.0463 c 0,0.8802 0.7135,1.5938 1.5937,1.5938 0.8802,0 1.5938,-0.7136 1.5938,-1.5938 V 608.702 c 0,-0.8802 -0.7136,-1.5937 -1.5938,-1.5937 -0.8802,0 -1.5937,0.7135 -1.5937,1.5937 z m -28.3465,14.1732 c 0,0.8803 0.7135,1.5938 1.5937,1.5938 0.8802,0 1.5938,-0.7135 1.5938,-1.5938 v -8.8083 c 0,-0.8802 -0.7136,-1.5937 -1.5938,-1.5937 -0.8802,0 -1.5937,0.7135 -1.5937,1.5937 z m 15.767,-44.1134 c -0.8802,0 -1.5938,0.7135 -1.5938,1.5937 0,0.8802 0.7136,1.5938 1.5938,1.5938 h 14.1732 c 0.8802,0 1.5938,-0.7136 1.5938,-1.5938 0,-0.8802 -0.7136,-1.5937 -1.5938,-1.5937 z m -1.5938,44.1134 c 0,0.8803 0.7136,1.5938 1.5938,1.5938 0.8802,0 1.5937,-0.7135 1.5937,-1.5938 v -14.1732 c 0,-0.8802 -0.7135,-1.5937 -1.5937,-1.5937 -0.8802,0 -1.5938,0.7135 -1.5938,1.5937 z m 1.5938,-15.7669 c -0.8802,0 -1.5938,0.7135 -1.5938,1.5937 0,0.8802 0.7136,1.5938 1.5938,1.5938 h 14.1732 c 0.8802,0 1.5938,-0.7136 1.5938,-1.5938 0,-0.8802 -0.7136,-1.5937 -1.5938,-1.5937 z m 61.1091,23.7815 c 0,0.8802 0.7135,1.5938 1.5937,1.5938 0.8802,0 1.5938,-0.7136 1.5938,-1.5938 v -14.1732 c 0,-0.8802 -0.7136,-1.5938 -1.5938,-1.5938 -0.8802,0 -1.5937,0.7136 -1.5937,1.5938 z m -4.5827,-8.4303 c -0.6224,-0.6224 -1.6315,-0.6224 -2.2539,0 -0.6224,0.6224 -0.6224,1.6315 0,2.2539 l 7.3034,7.3034 c 0.6224,0.6224 1.6315,0.6224 2.2539,0 0.6224,-0.6224 0.6224,-1.6315 0,-2.2539 z m 5.0524,7.3005 c -0.624,0.6208 -0.6266,1.6299 -0.006,2.2539 0.6208,0.624 1.6299,0.6265 2.2539,0.006 l 7.123,-7.0866 c 0.624,-0.6208 0.6266,-1.6299 0.006,-2.2539 -0.6208,-0.624 -1.6299,-0.6265 -2.2539,-0.006 z m -14.643,-24.7669 c 0,0.8802 0.7136,1.5937 1.5938,1.5937 0.8802,0 1.5937,-0.7135 1.5937,-1.5937 v -14.1733 c 0,-0.8802 -0.7135,-1.5937 -1.5937,-1.5937 -0.8802,0 -1.5938,0.7135 -1.5938,1.5937 z m 28.3465,0 c 0,0.8802 0.7136,1.5937 1.5938,1.5937 0.8802,0 1.5937,-0.7135 1.5937,-1.5937 v -14.1733 c 0,-0.8802 -0.7135,-1.5937 -1.5937,-1.5937 -0.8802,0 -1.5938,0.7135 -1.5938,1.5937 z m -13.3284,8.9518 c 0.777,0.4136 1.7421,0.1191 2.1558,-0.6579 0.4136,-0.777 0.119,-1.7421 -0.658,-2.1557 l -14.1732,-7.5451 c -0.777,-0.4136 -1.7421,-0.119 -2.1557,0.6579 -0.4136,0.777 -0.1191,1.7422 0.6579,2.1558 z m 15.6711,-7.545 c 0.777,-0.4136 1.0715,-1.3788 0.6579,-2.1558 -0.4136,-0.7769 -1.3788,-1.0715 -2.1557,-0.6579 l -14.1733,7.5451 c -0.777,0.4136 -1.0715,1.3787 -0.6579,2.1557 0.4136,0.777 1.3788,1.0715 2.1557,0.6579 z m -16.5159,6.1382 c 0,0.8802 0.7135,1.5937 1.5937,1.5937 0.8802,0 1.5938,-0.7135 1.5938,-1.5937 v -14.1732 c 0,-0.8802 -0.7136,-1.5938 -1.5938,-1.5938 -0.8802,0 -1.5937,0.7136 -1.5937,1.5938 z m 16.5159,-20.3114 c 0.777,-0.4137 1.0715,-1.3788 0.6579,-2.1558 -0.4136,-0.777 -1.3788,-1.0715 -2.1557,-0.6579 l -14.1733,7.545 c -0.777,0.4137 -1.0715,1.3788 -0.6579,2.1558 0.4136,0.7769 1.3788,1.0715 2.1557,0.6579 z m -15.6711,7.545 c 0.777,0.4136 1.7421,0.119 2.1558,-0.6579 0.4136,-0.777 0.119,-1.7421 -0.658,-2.1558 l -14.1732,-7.545 c -0.777,-0.4136 -1.7421,-0.1191 -2.1557,0.6579 -0.4136,0.777 -0.1191,1.7421 0.6579,2.1558 z m 14.1733,-7.545 c 0.7769,0.4136 1.7421,0.119 2.1557,-0.658 0.4136,-0.7769 0.1191,-1.7421 -0.6579,-2.1557 l -14.1733,-7.545 c -0.7769,-0.4137 -1.7421,-0.1191 -2.1557,0.6579 -0.4136,0.7769 -0.1191,1.7421 0.6579,2.1557 z m -12.6755,-7.5451 c 0.777,-0.4136 1.0716,-1.3788 0.658,-2.1557 -0.4137,-0.777 -1.3788,-1.0716 -2.1558,-0.6579 l -14.1732,7.545 c -0.777,0.4136 -1.0715,1.3788 -0.6579,2.1557 0.4136,0.777 1.3787,1.0716 2.1557,0.658 z m 0.8449,-20.1018 c 0,-0.8802 -0.7136,-1.5937 -1.5938,-1.5937 -0.8802,0 -1.5937,0.7135 -1.5937,1.5937 v 14.1733 c 0,0.8802 0.7135,1.5937 1.5937,1.5937 0.8802,0 1.5938,-0.7135 1.5938,-1.5937 z m 4.5827,8.4304 c 0.6224,0.6224 1.6315,0.6224 2.2539,0 0.6224,-0.6224 0.6224,-1.6315 0,-2.2539 l -7.3034,-7.3034 c -0.6224,-0.6224 -1.6315,-0.6224 -2.2539,0 -0.6224,0.6224 -0.6224,1.6315 0,2.2539 z m -5.0524,-7.3005 c 0.624,-0.6208 0.6266,-1.63 0.006,-2.2539 -0.6208,-0.624 -1.6299,-0.6266 -2.2539,-0.006 l -7.1231,7.0866 c -0.624,0.6208 -0.6265,1.6299 -0.006,2.2539 0.6208,0.624 1.6299,0.6266 2.2539,0.006 l 7.123,-7.0866 z m 30.3745,50.1829 c 0.768,0.43 1.7392,0.1561 2.1692,-0.6119 0.4301,-0.768 0.1561,-1.7392 -0.6119,-2.1693 l -12.3664,-6.9247 c -0.768,-0.43 -1.7392,-0.1561 -2.1693,0.6119 -0.43,0.768 -0.1561,1.7392 0.6119,2.1693 z m -9.5947,-0.1204 c -0.8471,0.239 -1.3402,1.1195 -1.1012,1.9666 0.239,0.8471 1.1194,1.3402 1.9666,1.1012 l 9.9406,-2.8041 c 0.8472,-0.239 1.3402,-1.1194 1.1012,-1.9666 -0.2389,-0.8471 -1.1194,-1.3401 -1.9666,-1.1012 z m 8.8383,-0.8414 c 0.2368,0.8477 1.116,1.343 1.9638,1.1062 0.8477,-0.2368 1.343,-1.116 1.1062,-1.9637 l -2.703,-9.6774 c -0.2368,-0.8477 -1.116,-1.343 -1.9638,-1.1062 -0.8477,0.2368 -1.343,1.116 -1.1062,1.9637 z m 2.073,-33.9003 c 0.7284,-0.4941 0.9184,-1.4851 0.4243,-2.2136 -0.4941,-0.7284 -1.4851,-0.9184 -2.2136,-0.4243 l -11.7296,7.9559 c -0.7284,0.4941 -0.9184,1.4852 -0.4243,2.2136 0.4941,0.7284 1.4851,0.9184 2.2136,0.4243 z m -4.4044,8.5249 c -0.1658,0.8644 0.4007,1.6995 1.2652,1.8653 0.8644,0.1657 1.6995,-0.4008 1.8653,-1.2652 l 1.9445,-10.1439 c 0.1657,-0.8645 -0.4007,-1.6996 -1.2652,-1.8653 -0.8644,-0.1657 -1.6996,0.4007 -1.8653,1.2652 z m 3.2057,-8.2794 c 0.864,0.1679 1.7006,-0.3964 1.8685,-1.2604 0.168,-0.864 -0.3963,-1.7006 -1.2604,-1.8685 l -9.8632,-1.917 c -0.864,-0.1679 -1.7006,0.3964 -1.8685,1.2604 -0.168,0.864 0.3964,1.7006 1.2604,1.8685 z m -61.8806,-1.011 c -0.783,-0.402 -1.7437,-0.0931 -2.1457,0.69 -0.402,0.783 -0.093,1.7437 0.69,2.1457 l 12.6088,6.4729 c 0.7831,0.402 1.7437,0.0931 2.1457,-0.69 0.402,-0.783 0.0931,-1.7437 -0.69,-2.1457 z m 9.5928,-0.2267 c 0.8379,-0.2695 1.2988,-1.1672 1.0293,-2.0051 -0.2694,-0.838 -1.1671,-1.2988 -2.0051,-1.0294 l -9.8327,3.1618 c -0.838,0.2695 -1.2988,1.1672 -1.0294,2.0051 0.2695,0.838 1.1672,1.2988 2.0052,1.0294 z m -8.8021,1.1606 c -0.2673,-0.8387 -1.1639,-1.3018 -2.0025,-1.0345 -0.8387,0.2673 -1.3018,1.1638 -1.0345,2.0024 l 3.0513,9.5733 c 0.2673,0.8386 1.1639,1.3018 2.0025,1.0345 0.8386,-0.2673 1.3018,-1.1639 1.0345,-2.0025 z m -2.5277,32.7552 c -0.7676,0.4307 -1.0408,1.4021 -0.6102,2.1698 0.4307,0.7676 1.4021,1.0408 2.1698,0.6101 l 12.3609,-6.9345 c 0.7677,-0.4306 1.0409,-1.402 0.6102,-2.1697 -0.4307,-0.7677 -1.4021,-1.0408 -2.1697,-0.6102 z m 5.1102,-8.1214 c 0.2383,-0.8473 -0.2554,-1.7274 -1.1027,-1.9657 -0.8474,-0.2383 -1.7274,0.2554 -1.9657,1.1027 l -2.7963,9.9429 c -0.2382,0.8473 0.2555,1.7274 1.1028,1.9657 0.8473,0.2383 1.7274,-0.2554 1.9657,-1.1027 z m -3.895,7.9783 c -0.8467,-0.2405 -1.7281,0.251 -1.9685,1.0977 -0.2405,0.8467 0.251,1.728 1.0977,1.9685 l 9.6655,2.745 c 0.8467,0.2405 1.7281,-0.251 1.9686,-1.0977 0.2404,-0.8468 -0.251,-1.7281 -1.0978,-1.9686 z m 74.3823,-3.4935 c -0.8802,0 -1.5937,0.7136 -1.5937,1.5938 0,0.8802 0.7135,1.5937 1.5937,1.5937 h 42.5198 c 0.8802,0 1.5937,-0.7135 1.5937,-1.5937 0,-0.8802 -0.7135,-1.5938 -1.5937,-1.5938 z m 12.5795,15.767 c 0,0.8802 0.7136,1.5938 1.5938,1.5938 0.8802,0 1.5937,-0.7136 1.5937,-1.5938 v -35.4331 c 0,-0.8802 -0.7135,-1.5937 -1.5937,-1.5937 -0.8802,0 -1.5938,0.7135 -1.5938,1.5937 z m 1.5938,-44.1134 c -0.8802,0 -1.5938,0.7135 -1.5938,1.5937 0,0.8802 0.7136,1.5938 1.5938,1.5938 h 42.5197 c 0.8802,0 1.5937,-0.7136 1.5937,-1.5938 0,-0.8802 -0.7135,-1.5937 -1.5937,-1.5937 z m 26.7527,22.8536 c 0,0.8802 0.7135,1.5937 1.5938,1.5937 0.8802,0 1.5937,-0.7135 1.5937,-1.5937 v -35.4331 c 0,-0.8802 -0.7135,-1.5938 -1.5937,-1.5938 -0.8803,0 -1.5938,0.7136 -1.5938,1.5938 z m 32.2793,21.2598 c 0,0.8802 0.7135,1.5938 1.5937,1.5938 0.8802,0 1.5938,-0.7136 1.5938,-1.5938 v -56.6929 c 0,-0.8802 -0.7136,-1.5938 -1.5938,-1.5938 -0.8802,0 -1.5937,0.7136 -1.5937,1.5938 z m 1.5937,-58.2867 c -0.8802,0 -1.5937,0.7136 -1.5937,1.5938 0,0.8802 0.7135,1.5937 1.5937,1.5937 h 21.2599 c 0.8802,0 1.5937,-0.7135 1.5937,-1.5937 0,-0.8802 -0.7135,-1.5938 -1.5937,-1.5938 z m 0,56.693 c -0.8802,0 -1.5937,0.7135 -1.5937,1.5937 0,0.8802 0.7135,1.5938 1.5937,1.5938 h 21.2599 c 0.8802,0 1.5937,-0.7136 1.5937,-1.5938 0,-0.8802 -0.7135,-1.5937 -1.5937,-1.5937 z m 19.8344,2.3065 c 0.3936,0.7872 1.351,1.1064 2.1382,0.7127 0.7873,-0.3936 1.1064,-1.3509 0.7128,-2.1382 l -7.0866,-14.1733 c -0.3937,-0.7872 -1.351,-1.1063 -2.1383,-0.7127 -0.7872,0.3936 -1.1064,1.351 -0.7127,2.1382 z m 2.851,-56.693 c 0.3936,-0.7873 0.0745,-1.7446 -0.7128,-2.1382 -0.7872,-0.3937 -1.7446,-0.0745 -2.1382,0.7127 l -7.0866,14.1733 c -0.3937,0.7872 -0.0745,1.7446 0.7127,2.1382 0.7873,0.3936 1.7446,0.0745 2.1383,-0.7127 z m -2.851,28.3465 c 0.3936,0.7873 1.351,1.1064 2.1382,0.7127 0.7873,-0.3936 1.1064,-1.3509 0.7128,-2.1382 l -7.0866,-14.1732 c -0.3937,-0.7873 -1.351,-1.1064 -2.1383,-0.7128 -0.7872,0.3937 -1.1064,1.351 -0.7127,2.1383 z m 2.851,0 c 0.3936,-0.7873 0.0745,-1.7446 -0.7128,-2.1382 -0.7872,-0.3937 -1.7446,-0.0746 -2.1382,0.7127 l -7.0866,14.1732 c -0.3937,0.7873 -0.0745,1.7446 0.7127,2.1383 0.7873,0.3936 1.7446,0.0745 2.1383,-0.7128 z m 24.6954,27.6337 c 0,0.8802 0.7136,1.5938 1.5938,1.5938 0.8802,0 1.5937,-0.7136 1.5937,-1.5938 v -56.6929 c 0,-0.8802 -0.7135,-1.5938 -1.5937,-1.5938 -0.8802,0 -1.5938,0.7136 -1.5938,1.5938 z M 472.925,596.1443 c -0.8802,0 -1.5937,0.7136 -1.5937,1.5938 0,0.8802 0.7135,1.5937 1.5937,1.5937 h 13.5415 c 0.8802,0 1.5937,-0.7135 1.5937,-1.5937 0,-0.8802 -0.7135,-1.5938 -1.5937,-1.5938 z m 0,56.693 c -0.8802,0 -1.5937,0.7135 -1.5937,1.5937 0,0.8802 0.7135,1.5938 1.5937,1.5938 h 13.5415 c 0.8802,0 1.5937,-0.7136 1.5937,-1.5938 0,-0.8802 -0.7135,-1.5937 -1.5937,-1.5937 z m -1.4255,2.3065 c 0.3937,0.7872 1.351,1.1064 2.1383,0.7127 0.7873,-0.3936 1.1064,-1.3509 0.7127,-2.1382 l -7.0866,-14.1733 c -0.3936,-0.7872 -1.351,-1.1063 -2.1382,-0.7127 -0.7873,0.3936 -1.1064,1.351 -0.7128,2.1382 z m 2.851,-56.693 c 0.3937,-0.7873 0.0746,-1.7446 -0.7127,-2.1382 -0.7873,-0.3937 -1.7446,-0.0745 -2.1383,0.7127 l -7.0866,14.1733 c -0.3936,0.7872 -0.0745,1.7446 0.7128,2.1382 0.7872,0.3936 1.7446,0.0745 2.1382,-0.7127 z m -2.851,28.3465 c 0.3937,0.7873 1.351,1.1064 2.1383,0.7127 0.7873,-0.3936 1.1064,-1.3509 0.7127,-2.1382 l -7.0866,-14.1732 c -0.3936,-0.7873 -1.351,-1.1064 -2.1382,-0.7128 -0.7873,0.3937 -1.1064,1.351 -0.7128,2.1383 z m 2.851,0 c 0.3937,-0.7873 0.0746,-1.7446 -0.7127,-2.1382 -0.7873,-0.3937 -1.7446,-0.0746 -2.1383,0.7127 l -7.0866,14.1732 c -0.3936,0.7873 -0.0745,1.7446 0.7128,2.1383 0.7872,0.3936 1.7446,0.0745 2.1382,-0.7128 z M 13.85491,569.6384 c 0,0.8802 0.71355,1.5937 1.59375,1.5937 0.88021,0 1.59375,-0.7135 1.59375,-1.5937 v -42.5197 c 0,-0.8802 -0.71354,-1.5938 -1.59375,-1.5938 -0.8802,0 -1.59375,0.7136 -1.59375,1.5938 z m 3.17747,0.1785 c 0.09859,-0.8747 -0.53056,-1.6637 -1.40522,-1.7622 -0.87467,-0.0986 -1.66364,0.5305 -1.76222,1.4052 -0.71261,6.3227 2.5026,9.5434 8.83187,8.8494 0.87496,-0.096 1.50646,-0.8831 1.41051,-1.758 -0.09595,-0.875 -0.88303,-1.5065 -1.75799,-1.4106 -4.29958,0.4716 -5.80065,-1.0321 -5.31695,-5.3238 m 5.49069,5.3143 c -0.8802,0 -1.59375,0.7136 -1.59375,1.5938 0,0.8802 0.71355,1.5937 1.59375,1.5937 h 28.34647 c 0.88021,0 1.59375,-0.7135 1.59375,-1.5937 0,-0.8802 -0.71354,-1.5938 -1.59375,-1.5938 z m 33.85155,-5.4928 c 0,0.8802 0.71355,1.5937 1.59375,1.5937 0.8802,0 1.59375,-0.7135 1.59375,-1.5937 v -42.5197 c 0,-0.8802 -0.71355,-1.5938 -1.59375,-1.5938 -0.8802,0 -1.59375,0.7136 -1.59375,1.5938 z M 22.52307,518.1915 c -0.8802,0 -1.59375,0.7136 -1.59375,1.5938 0,0.8802 0.71355,1.5937 1.59375,1.5937 h 28.34647 c 0.88021,0 1.59375,-0.7135 1.59375,-1.5937 0,-0.8802 -0.71354,-1.5938 -1.59375,-1.5938 z m 28.52497,56.9498 c -0.87467,-0.0986 -1.66364,0.5305 -1.76222,1.4052 -0.09858,0.8747 0.53056,1.6636 1.40523,1.7622 6.33186,0.7137 9.55668,-2.5056 8.86157,-8.8441 -0.09595,-0.8749 -0.88303,-1.5064 -1.75799,-1.4105 -0.87496,0.096 -1.50647,0.8831 -1.41051,1.758 0.47252,4.3088 -1.03521,5.8139 -5.33608,5.3292 m 5.33954,-48.2255 c -0.11203,0.8731 0.5049,1.6716 1.37794,1.7837 0.87305,0.112 1.67161,-0.5049 1.78364,-1.378 0.82293,-6.4131 -2.3871,-9.7292 -8.82895,-9.123 -0.87634,0.0825 -1.51988,0.8598 -1.43741,1.7361 0.08248,0.8763 0.85975,1.5199 1.73608,1.4374 4.40898,-0.4149 5.9315,1.1579 5.3687,5.5438 m -34.01314,-5.5437 c 0.87636,0.0821 1.65335,-0.5618 1.73543,-1.4382 0.08209,-0.8764 -0.5618,-1.6533 -1.43816,-1.7354 -6.42855,-0.6022 -9.62894,2.7154 -8.80375,9.1237 0.11242,0.873 0.91125,1.4896 1.78425,1.3772 0.87299,-0.1124 1.48957,-0.9113 1.37715,-1.7843 -0.56442,-4.3832 0.95146,-5.9546 5.34508,-5.543 m 1.5355,40.1114 c -0.45368,-0.7543 -1.43293,-0.9979 -2.1872,-0.5442 -0.75427,0.4536 -0.99795,1.4329 -0.54426,2.1872 2.81952,4.6875 6.6067,4.6875 9.75896,0.0782 0.49687,-0.7266 0.31068,-1.7184 -0.41588,-2.2152 -0.72655,-0.4969 -1.71833,-0.3107 -2.2152,0.4158 -1.86865,2.7325 -2.79993,2.7325 -4.39642,0.0782 m 11.44178,1.643 c 0.45368,0.7542 1.43293,0.9979 2.1872,0.5442 0.75427,-0.4537 0.99795,-1.4329 0.54426,-2.1872 -2.8406,-4.7226 -6.6503,-4.7226 -9.82651,-0.0782 -0.49688,0.7266 -0.31068,1.7184 0.41587,2.2152 0.72655,0.4969 1.71833,0.3107 2.2152,-0.4158 1.89261,-2.7675 2.84641,-2.7675 4.46398,-0.0782 m 2.73146,-1.643 c -0.45369,-0.7543 -1.43293,-0.9979 -2.1872,-0.5442 -0.75428,0.4536 -0.99795,1.4329 -0.54426,2.1872 2.81952,4.6875 6.6067,4.6875 9.75895,0.0782 0.49687,-0.7266 0.31068,-1.7184 -0.41587,-2.2152 -0.72655,-0.4969 -1.71833,-0.3107 -2.2152,0.4158 -1.86865,2.7325 -2.79993,2.7325 -4.39642,0.0782 m 11.44177,1.643 c 0.45369,0.7542 1.43293,0.9979 2.1872,0.5442 0.75428,-0.4537 0.99795,-1.4329 0.54426,-2.1872 -2.8406,-4.7226 -6.65029,-4.7226 -9.82651,-0.0782 -0.49687,0.7266 -0.31068,1.7184 0.41587,2.2152 0.72655,0.4969 1.71833,0.3107 2.21521,-0.4158 1.89261,-2.7675 2.8464,-2.7675 4.46397,-0.0782 M 23.90994,547.3103 c -0.45368,-0.7543 -1.43293,-0.998 -2.1872,-0.5443 -0.75427,0.4537 -0.99795,1.433 -0.54426,2.1872 2.81952,4.6876 6.6067,4.6876 9.75896,0.0782 0.49687,-0.7265 0.31068,-1.7183 -0.41588,-2.2152 -0.72655,-0.4969 -1.71833,-0.3107 -2.2152,0.4159 -1.86865,2.7324 -2.79993,2.7324 -4.39642,0.0782 m 11.44178,1.6429 c 0.45368,0.7543 1.43293,0.998 2.1872,0.5443 0.75427,-0.4537 0.99795,-1.4329 0.54426,-2.1872 -2.8406,-4.7226 -6.6503,-4.7226 -9.82651,-0.0782 -0.49688,0.7265 -0.31068,1.7183 0.41587,2.2152 0.72655,0.4969 1.71833,0.3107 2.2152,-0.4159 1.89261,-2.7675 2.84641,-2.7675 4.46398,-0.0782 m 2.73146,-1.6429 c -0.45369,-0.7543 -1.43293,-0.998 -2.1872,-0.5443 -0.75428,0.4537 -0.99795,1.433 -0.54426,2.1872 2.81952,4.6876 6.6067,4.6876 9.75895,0.0782 0.49687,-0.7265 0.31068,-1.7183 -0.41587,-2.2152 -0.72655,-0.4969 -1.71833,-0.3107 -2.2152,0.4159 -1.86865,2.7324 -2.79993,2.7324 -4.39642,0.0782 m 11.44177,1.6429 c 0.45369,0.7543 1.43293,0.998 2.1872,0.5443 0.75428,-0.4537 0.99795,-1.4329 0.54426,-2.1872 -2.8406,-4.7226 -6.65029,-4.7226 -9.82651,-0.0782 -0.49687,0.7265 -0.31068,1.7183 0.41587,2.2152 0.72655,0.4969 1.71833,0.3107 2.21521,-0.4159 1.89261,-2.7675 2.8464,-2.7675 4.46397,-0.0782 M 23.90994,533.137 c -0.45368,-0.7542 -1.43293,-0.9979 -2.1872,-0.5442 -0.75427,0.4537 -0.99795,1.4329 -0.54426,2.1872 2.81952,4.6876 6.6067,4.6876 9.75896,0.0782 0.49687,-0.7266 0.31068,-1.7183 -0.41588,-2.2152 -0.72655,-0.4969 -1.71833,-0.3107 -2.2152,0.4158 -1.86865,2.7325 -2.79993,2.7325 -4.39642,0.0782 m 11.44178,1.643 c 0.45368,0.7543 1.43293,0.9979 2.1872,0.5442 0.75427,-0.4536 0.99795,-1.4329 0.54426,-2.1872 -2.8406,-4.7226 -6.6503,-4.7226 -9.82651,-0.0782 -0.49688,0.7266 -0.31068,1.7184 0.41587,2.2153 0.72655,0.4968 1.71833,0.3106 2.2152,-0.4159 1.89261,-2.7675 2.84641,-2.7675 4.46398,-0.0782 m 2.73146,-1.643 c -0.45369,-0.7542 -1.43293,-0.9979 -2.1872,-0.5442 -0.75428,0.4537 -0.99795,1.4329 -0.54426,2.1872 2.81952,4.6876 6.6067,4.6876 9.75895,0.0782 0.49687,-0.7266 0.31068,-1.7183 -0.41587,-2.2152 -0.72655,-0.4969 -1.71833,-0.3107 -2.2152,0.4158 -1.86865,2.7325 -2.79993,2.7325 -4.39642,0.0782 m 11.44177,1.643 c 0.45369,0.7543 1.43293,0.9979 2.1872,0.5442 0.75428,-0.4536 0.99795,-1.4329 0.54426,-2.1872 -2.8406,-4.7226 -6.65029,-4.7226 -9.82651,-0.0782 -0.49687,0.7266 -0.31068,1.7184 0.41587,2.2153 0.72655,0.4968 1.71833,0.3106 2.21521,-0.4159 1.89261,-2.7675 2.8464,-2.7675 4.46397,-0.0782 m 59.42305,24.072 c 0,-5.7299 -3.0997,-10.7362 -7.7144,-13.4322 -2.30003,-1.3437 -4.97604,-2.1143 -7.83214,-2.1143 -5.72992,0 -10.73616,3.0997 -13.43215,7.7143 -1.34372,2.3001 -2.11438,4.9761 -2.11438,7.8322 0,5.7299 3.09971,10.7361 7.7144,13.4321 2.30002,1.3437 4.97603,2.1144 7.83213,2.1144 5.72992,0 10.73614,-3.0997 13.43214,-7.7144 1.3437,-2.3 2.1144,-4.976 2.1144,-7.8321 m -3.1875,0 c 0,2.2695 -0.6113,4.3964 -1.6791,6.2242 -2.1436,3.6691 -6.12368,6.1348 -10.67994,6.1348 -2.26953,0 -4.39639,-0.6112 -6.22422,-1.6791 -3.66915,-2.1436 -6.13481,-6.1237 -6.13481,-10.6799 0,-2.2696 0.61126,-4.3964 1.67911,-6.2242 2.14358,-3.6692 6.12366,-6.1348 10.67992,-6.1348 2.26953,0 4.39639,0.6112 6.22422,1.6791 3.66912,2.1435 6.13482,6.1236 6.13482,10.6799 m -18.02016,-7.7994 c -0.39364,-0.7873 -1.35097,-1.1064 -2.13824,-0.7127 -0.78728,0.3936 -1.10639,1.3509 -0.71275,2.1382 l 7.08662,14.1732 c 0.39364,0.7873 1.35096,1.1064 2.13824,0.7128 0.78727,-0.3936 1.10638,-1.351 0.71274,-2.1382 z m 4.23563,14.1733 c -0.39364,0.7872 -0.07453,1.7446 0.71274,2.1382 0.78728,0.3936 1.7446,0.0745 2.13824,-0.7128 l 7.08665,-14.1732 c 0.3936,-0.7873 0.0745,-1.7446 -0.7128,-2.1382 -0.7873,-0.3937 -1.74458,-0.0746 -2.13822,0.7127 z m -5.66113,-7.9677 c -0.8802,0 -1.59375,0.7136 -1.59375,1.5938 0,0.8802 0.71355,1.5937 1.59375,1.5937 h 14.17326 c 0.8802,0 1.5937,-0.7135 1.5937,-1.5937 0,-0.8802 -0.7135,-1.5938 -1.5937,-1.5938 z M 127.6804,531.728 c 0.607,0.6374 1.6158,0.662 2.2532,0.055 0.6375,-0.607 0.6621,-1.6158 0.0551,-2.2532 l -6.8662,-7.21 c -0.607,-0.6374 -1.6158,-0.6621 -2.2532,-0.055 -0.6374,0.607 -0.6621,1.6158 -0.055,2.2532 z m -22.515,19.9463 c -0.6275,0.6172 -0.6359,1.6263 -0.0186,2.2538 0.6172,0.6276 1.6263,0.6359 2.2538,0.0187 l 22.5515,-22.1817 c 0.6276,-0.6172 0.6359,-1.6263 0.0187,-2.2538 -0.6172,-0.6275 -1.6263,-0.6359 -2.2538,-0.0186 z m -6.86615,-7.21 c -0.62752,0.6172 -0.63586,1.6263 -0.01863,2.2538 0.61723,0.6276 1.6263,0.6359 2.25378,0.0187 l 22.5516,-22.1817 c 0.6275,-0.6172 0.6359,-1.6263 0.0186,-2.2538 -0.6172,-0.6275 -1.6263,-0.6359 -2.2538,-0.0186 z m 88.82195,25.002 -1.2485,-0.0747 h -1.1125 l -0.8269,0.007 c 4e-4,1.0756 -0.2708,2.0207 -0.7453,2.8329 -0.9528,1.6309 -2.7218,2.7272 -4.7471,2.7272 -1.0084,0 -1.9535,-0.2713 -2.7657,-0.7457 -1.5906,-0.9293 -2.6727,-2.635 -2.7252,-4.5976 l -0.4974,0.0157 -1.6332,0.0455 -0.9765,0.0168 c 4e-4,3.1036 1.7092,5.8024 4.2244,7.2718 1.2844,0.7503 2.7786,1.181 4.3736,1.181 3.199,0 5.9941,-1.7304 7.4994,-4.3068 0.7503,-1.2844 1.1809,-2.7787 1.1809,-4.3736 m 0,-14.1548 c 0,-3.199 -1.7303,-5.9942 -4.3068,-7.4994 -1.2843,-0.7503 -2.7786,-1.181 -4.3735,-1.181 -3.199,0 -5.9942,1.7304 -7.4994,4.3068 -0.7504,1.2844 -1.181,2.7787 -1.181,4.3736 0,0.2378 0.01,0.4733 0.0283,0.7062 l 0.9007,0.008 2.318,0.097 c -0.0392,-0.2648 -0.0595,-0.5358 -0.0595,-0.8115 0,-1.0084 0.2712,-1.9535 0.7457,-2.7656 0.9528,-1.631 2.7218,-2.7273 4.7472,-2.7273 1.0083,0 1.9535,0.2713 2.7656,0.7458 1.6309,0.9528 2.7272,2.7218 2.7272,4.7471 0,0.3474 -0.0321,0.6872 -0.0937,1.0167 h 0.6811 0.8726 l 1.3628,-0.0326 0.3105,-0.009 c 0.0359,-0.32 0.0542,-0.6454 0.0542,-0.975 m -10.3918,-7.1797 c 0,0.8802 0.7136,1.5937 1.5938,1.5937 0.8802,0 1.5937,-0.7135 1.5937,-1.5937 v -14.1733 c 0,-0.8802 -0.7135,-1.5937 -1.5937,-1.5937 -0.8802,0 -1.5938,0.7135 -1.5938,1.5937 z m 8.7981,-12.5795 c 0.8802,0 1.5937,-0.7136 1.5937,-1.5938 0,-0.8802 -0.7135,-1.5937 -1.5937,-1.5937 h -14.1732 c -0.8802,0 -1.5938,0.7135 -1.5938,1.5937 0,0.8802 0.7136,1.5938 1.5938,1.5938 z m -15.767,33.8393 c 0,0.8802 0.7136,1.5938 1.5938,1.5938 0.8802,0 1.5937,-0.7136 1.5937,-1.5938 v -14.1732 c 0,-0.8802 -0.7135,-1.5938 -1.5937,-1.5938 -0.8802,0 -1.5938,0.7136 -1.5938,1.5938 z m 14.1732,0 c 0,0.8802 0.7136,1.5938 1.5938,1.5938 0.8802,0 1.5937,-0.7136 1.5937,-1.5938 v -14.1732 c 0,-0.8802 -0.7135,-1.5938 -1.5937,-1.5938 -0.8802,0 -1.5938,0.7136 -1.5938,1.5938 z m -9.095,-5.4929 c 0.8802,0 1.5938,-0.7135 1.5938,-1.5937 0,-0.8802 -0.7136,-1.5938 -1.5938,-1.5938 h -3.4844 c -0.8802,0 -1.5938,0.7136 -1.5938,1.5938 0,0.8802 0.7136,1.5937 1.5938,1.5937 z m 10.6888,0 c 0.8802,0 1.5937,-0.7135 1.5937,-1.5937 0,-0.8802 -0.7135,-1.5938 -1.5937,-1.5938 h -3.4845 c -0.8802,0 -1.5937,0.7136 -1.5937,1.5938 0,0.8802 0.7135,1.5937 1.5937,1.5937 z m -10.6888,7.0867 c 0.8802,0 1.5938,-0.7136 1.5938,-1.5938 0,-0.8802 -0.7136,-1.5937 -1.5938,-1.5937 h -3.4844 c -0.8802,0 -1.5938,0.7135 -1.5938,1.5937 0,0.8802 0.7136,1.5938 1.5938,1.5938 z m 10.6888,0 c 0.8802,0 1.5937,-0.7136 1.5937,-1.5938 0,-0.8802 -0.7135,-1.5937 -1.5937,-1.5937 h -3.4845 c -0.8802,0 -1.5937,0.7135 -1.5937,1.5937 0,0.8802 0.7135,1.5938 1.5937,1.5938 z m -10.6888,-14.1733 c 0.8802,0 1.5938,-0.7135 1.5938,-1.5937 0,-0.8802 -0.7136,-1.5938 -1.5938,-1.5938 h -3.4844 c -0.8802,0 -1.5938,0.7136 -1.5938,1.5938 0,0.8802 0.7136,1.5937 1.5938,1.5937 z m 10.6888,0 c 0.8802,0 1.5937,-0.7135 1.5937,-1.5937 0,-0.8802 -0.7135,-1.5938 -1.5937,-1.5938 h -3.4845 c -0.8802,0 -1.5937,0.7136 -1.5937,1.5938 0,0.8802 0.7135,1.5937 1.5937,1.5937 z m 8.6796,-2.4986 c -0.1335,-5.6535 -3.242,-10.5711 -7.821,-13.2462 -2.3332,-1.3631 -5.0477,-2.1448 -7.9449,-2.1448 -5.8125,0 -10.8908,3.1443 -13.6256,7.8255 -1.3076,2.2381 -2.0802,4.8272 -2.1409,7.5918 h 0.528 1.0834 1.577 c 0.06,-2.1781 0.6731,-4.2181 1.7047,-5.9839 2.1824,-3.7356 6.2346,-6.2459 10.8734,-6.2459 2.3106,0 4.476,0.6223 6.337,1.7095 3.6241,2.1173 6.0949,5.9943 6.2392,10.4596 h 0.2854 l 1.6995,0.0345 z" /></g></g></g></svg>